<svg width="158" height="15" viewBox="0 0 158 15" fill="none" xmlns="http://www.w3.org/2000/svg">
<path d="M2.43213 3.15527C1.98942 3.15527 1.62695 3.02523 1.34473 2.76514C1.0625 2.49951 0.921387 2.17578 0.921387 1.79395C0.921387 1.40104 1.0625 1.08008 1.34473 0.831055C1.62695 0.582031 1.98942 0.45752 2.43213 0.45752C2.88037 0.45752 3.24284 0.582031 3.51953 0.831055C3.80176 1.08008 3.94287 1.40104 3.94287 1.79395C3.94287 2.19238 3.80176 2.51888 3.51953 2.77344C3.24284 3.02799 2.88037 3.15527 2.43213 3.15527ZM3.72705 13H1.104V4.5H3.72705V13ZM14.1445 13H11.5298V8.27686C11.5298 6.9598 11.0594 6.30127 10.1187 6.30127C9.66488 6.30127 9.29134 6.47559 8.99805 6.82422C8.70475 7.17285 8.55811 7.61556 8.55811 8.15234V13H5.93506V4.5H8.55811V5.84473H8.59131C9.21663 4.8099 10.127 4.29248 11.3223 4.29248C13.2038 4.29248 14.1445 5.46012 14.1445 7.79541V13ZM21.7729 2.4248C21.4354 2.29199 21.1117 2.22559 20.8018 2.22559C19.9606 2.22559 19.54 2.68213 19.54 3.59521V4.5H21.4824V6.43408H19.54V13H16.9253V6.43408H15.4976V4.5H16.9253V3.4458C16.9253 2.47738 17.2407 1.6971 17.8716 1.10498C18.5024 0.512858 19.3602 0.216797 20.4448 0.216797C20.9761 0.216797 21.4188 0.272135 21.7729 0.382812V2.4248ZM26.8032 13.2075C25.3866 13.2075 24.2715 12.8118 23.458 12.0205C22.6501 11.2236 22.2461 10.1445 22.2461 8.7832C22.2461 7.3776 22.6667 6.27913 23.5078 5.48779C24.349 4.69092 25.4862 4.29248 26.9194 4.29248C28.3306 4.29248 29.4373 4.69092 30.2397 5.48779C31.0422 6.27913 31.4434 7.3278 31.4434 8.63379C31.4434 10.0449 31.0283 11.16 30.1982 11.979C29.3737 12.798 28.242 13.2075 26.8032 13.2075ZM26.8696 6.30127C26.2498 6.30127 25.7684 6.51432 25.4253 6.94043C25.0822 7.36654 24.9106 7.96973 24.9106 8.75C24.9106 10.3825 25.5692 11.1987 26.8862 11.1987C28.1424 11.1987 28.7705 10.3604 28.7705 8.68359C28.7705 7.09538 28.1369 6.30127 26.8696 6.30127ZM41.3545 9.92041H41.3047C40.9173 10.9774 40.2145 11.5059 39.1963 11.5059C38.4326 11.5059 37.8156 11.2292 37.3452 10.6758C36.8804 10.1224 36.6479 9.35596 36.6479 8.37646C36.6479 7.10921 36.9717 6.07992 37.6191 5.28857C38.2666 4.4917 39.0469 4.09326 39.96 4.09326C40.7845 4.09326 41.3019 4.41699 41.5122 5.06445H41.5454L41.6284 4.24268H43.4961C43.2471 6.6001 43.1226 8.14128 43.1226 8.86621C43.1226 9.64095 43.3328 10.0283 43.7534 10.0283C44.1961 10.0283 44.5614 9.73503 44.8491 9.14844C45.1369 8.56185 45.2808 7.79541 45.2808 6.84912C45.2808 5.5542 44.8685 4.49447 44.0439 3.66992C43.2194 2.83984 42.0684 2.4248 40.5908 2.4248C39.0081 2.4248 37.6911 2.97819 36.6396 4.08496C35.5938 5.1862 35.0708 6.53092 35.0708 8.11914C35.0708 9.65755 35.5329 10.8695 36.457 11.7549C37.3867 12.6403 38.6678 13.083 40.3003 13.083C41.5454 13.083 42.6854 12.8451 43.7202 12.3691V13.9546C42.7739 14.3586 41.5565 14.5605 40.0679 14.5605C38.0259 14.5605 36.363 13.9767 35.0791 12.8091C33.8008 11.6359 33.1616 10.0615 33.1616 8.08594C33.1616 6.07161 33.8451 4.37826 35.2119 3.00586C36.5788 1.63346 38.3385 0.947266 40.4912 0.947266C42.4834 0.947266 44.0938 1.48128 45.3223 2.54932C46.5563 3.61182 47.1733 5.01465 47.1733 6.75781C47.1733 8.19108 46.797 9.34212 46.0444 10.2109C45.2918 11.0742 44.3594 11.5059 43.2471 11.5059C42.6992 11.5059 42.2537 11.3592 41.9106 11.0659C41.5675 10.7726 41.3822 10.3908 41.3545 9.92041ZM40.2505 5.5376C39.7524 5.5376 39.3457 5.82259 39.0303 6.39258C38.7204 6.95703 38.5654 7.61279 38.5654 8.35986C38.5654 8.89111 38.6706 9.30615 38.8809 9.60498C39.0967 9.89827 39.3734 10.0449 39.7109 10.0449C40.2311 10.0449 40.6406 9.76546 40.9395 9.20654C41.2383 8.64762 41.3877 7.90055 41.3877 6.96533C41.3877 6.52262 41.2826 6.17399 41.0723 5.91943C40.8675 5.66488 40.5936 5.5376 40.2505 5.5376ZM56.437 13H53.9551V11.7798H53.9219C53.3519 12.7316 52.508 13.2075 51.3901 13.2075C50.5656 13.2075 49.9154 12.9751 49.4395 12.5103C48.9691 12.0399 48.7339 11.4146 48.7339 10.6343C48.7339 8.98519 49.7106 8.03337 51.6641 7.77881L53.9717 7.47168C53.9717 6.54199 53.4681 6.07715 52.4609 6.07715C51.4482 6.07715 50.4854 6.37874 49.5723 6.98193V5.00635C49.9375 4.8182 50.4355 4.65218 51.0664 4.5083C51.7028 4.36442 52.2811 4.29248 52.8013 4.29248C55.2251 4.29248 56.437 5.50163 56.437 7.91992V13ZM53.9717 9.54688V8.97412L52.4277 9.17334C51.5755 9.28402 51.1494 9.66862 51.1494 10.3271C51.1494 10.626 51.2518 10.8722 51.4565 11.0659C51.6668 11.2541 51.9491 11.3481 52.3032 11.3481C52.7957 11.3481 53.1969 11.1794 53.5068 10.8418C53.8167 10.4987 53.9717 10.0671 53.9717 9.54688ZM64.0571 6.86572C63.7417 6.69417 63.3737 6.6084 62.9531 6.6084C62.3831 6.6084 61.9377 6.81868 61.6167 7.23926C61.2957 7.6543 61.1353 8.22152 61.1353 8.94092V13H58.5122V4.5H61.1353V6.07715H61.1685C61.5835 4.92611 62.3306 4.35059 63.4097 4.35059C63.6864 4.35059 63.9022 4.38379 64.0571 4.4502V6.86572ZM66.6802 3.15527C66.2375 3.15527 65.875 3.02523 65.5928 2.76514C65.3105 2.49951 65.1694 2.17578 65.1694 1.79395C65.1694 1.40104 65.3105 1.08008 65.5928 0.831055C65.875 0.582031 66.2375 0.45752 66.6802 0.45752C67.1284 0.45752 67.4909 0.582031 67.7676 0.831055C68.0498 1.08008 68.1909 1.40104 68.1909 1.79395C68.1909 2.19238 68.0498 2.51888 67.7676 2.77344C67.4909 3.02799 67.1284 3.15527 66.6802 3.15527ZM67.9751 13H65.3521V4.5H67.9751V13ZM78.3926 13H75.7778V8.27686C75.7778 6.9598 75.3075 6.30127 74.3667 6.30127C73.9129 6.30127 73.5394 6.47559 73.2461 6.82422C72.9528 7.17285 72.8062 7.61556 72.8062 8.15234V13H70.1831V4.5H72.8062V5.84473H72.8394C73.4647 4.8099 74.375 4.29248 75.5703 4.29248C77.4518 4.29248 78.3926 5.46012 78.3926 7.79541V13ZM85.6143 12.9004C85.2269 13.1051 84.6431 13.2075 83.8628 13.2075C82.0145 13.2075 81.0903 12.2474 81.0903 10.3271V6.43408H79.7124V4.5H81.0903V2.66553L83.7051 1.91846V4.5H85.6143V6.43408H83.7051V9.87061C83.7051 10.756 84.0565 11.1987 84.7593 11.1987C85.036 11.1987 85.321 11.1185 85.6143 10.958V12.9004ZM94.6704 9.49707H89.1255C89.214 10.7311 89.9915 11.3481 91.458 11.3481C92.3932 11.3481 93.215 11.1268 93.9233 10.6841V12.5767C93.1375 12.9972 92.1165 13.2075 90.8604 13.2075C89.488 13.2075 88.4227 12.8285 87.6646 12.0703C86.9064 11.3066 86.5273 10.2441 86.5273 8.88281C86.5273 7.47168 86.9368 6.35384 87.7559 5.5293C88.5749 4.70475 89.582 4.29248 90.7773 4.29248C92.0169 4.29248 92.9743 4.66048 93.6494 5.39648C94.3301 6.13249 94.6704 7.13135 94.6704 8.39307V9.49707ZM92.2383 7.88672C92.2383 6.66927 91.7458 6.06055 90.7607 6.06055C90.3402 6.06055 89.9749 6.23486 89.665 6.5835C89.3607 6.93213 89.1753 7.36654 89.1089 7.88672H92.2383ZM98.854 13H96.231V0.416016H98.854V13ZM103.685 13H101.062V0.416016H103.685V13ZM113.53 9.49707H107.985C108.073 10.7311 108.851 11.3481 110.317 11.3481C111.253 11.3481 112.074 11.1268 112.783 10.6841V12.5767C111.997 12.9972 110.976 13.2075 109.72 13.2075C108.347 13.2075 107.282 12.8285 106.524 12.0703C105.766 11.3066 105.387 10.2441 105.387 8.88281C105.387 7.47168 105.796 6.35384 106.615 5.5293C107.434 4.70475 108.441 4.29248 109.637 4.29248C110.876 4.29248 111.834 4.66048 112.509 5.39648C113.189 6.13249 113.53 7.13135 113.53 8.39307V9.49707ZM111.098 7.88672C111.098 6.66927 110.605 6.06055 109.62 6.06055C109.2 6.06055 108.834 6.23486 108.524 6.5835C108.22 6.93213 108.035 7.36654 107.968 7.88672H111.098ZM121.532 12.6929C120.94 13.036 120.085 13.2075 118.967 13.2075C117.661 13.2075 116.604 12.8118 115.796 12.0205C114.988 11.2292 114.584 10.2082 114.584 8.95752C114.584 7.51318 115.016 6.37598 115.879 5.5459C116.748 4.71029 117.907 4.29248 119.357 4.29248C120.359 4.29248 121.083 4.42529 121.532 4.69092V6.91553C120.984 6.50602 120.372 6.30127 119.697 6.30127C118.945 6.30127 118.347 6.52262 117.904 6.96533C117.467 7.40251 117.249 8.00846 117.249 8.7832C117.249 9.53581 117.459 10.1279 117.879 10.5596C118.3 10.9857 118.878 11.1987 119.614 11.1987C120.267 11.1987 120.906 10.994 121.532 10.5845V12.6929ZM128.396 12.9004C128.009 13.1051 127.425 13.2075 126.645 13.2075C124.797 13.2075 123.873 12.2474 123.873 10.3271V6.43408H122.495V4.5H123.873V2.66553L126.487 1.91846V4.5H128.396V6.43408H126.487V9.87061C126.487 10.756 126.839 11.1987 127.542 11.1987C127.818 11.1987 128.103 11.1185 128.396 10.958V12.9004ZM131.053 13.2075C130.621 13.2075 130.261 13.0747 129.974 12.8091C129.686 12.5435 129.542 12.217 129.542 11.8296C129.542 11.4312 129.689 11.1047 129.982 10.8501C130.281 10.5955 130.652 10.4683 131.094 10.4683C131.542 10.4683 131.908 10.5983 132.19 10.8584C132.478 11.113 132.622 11.4367 132.622 11.8296C132.622 12.2336 132.475 12.5656 132.182 12.8257C131.894 13.0802 131.518 13.2075 131.053 13.2075ZM141.57 13H139.088V11.7798H139.055C138.485 12.7316 137.641 13.2075 136.523 13.2075C135.698 13.2075 135.048 12.9751 134.572 12.5103C134.102 12.0399 133.867 11.4146 133.867 10.6343C133.867 8.98519 134.843 8.03337 136.797 7.77881L139.104 7.47168C139.104 6.54199 138.601 6.07715 137.594 6.07715C136.581 6.07715 135.618 6.37874 134.705 6.98193V5.00635C135.07 4.8182 135.568 4.65218 136.199 4.5083C136.836 4.36442 137.414 4.29248 137.934 4.29248C140.358 4.29248 141.57 5.50163 141.57 7.91992V13ZM139.104 9.54688V8.97412L137.561 9.17334C136.708 9.28402 136.282 9.66862 136.282 10.3271C136.282 10.626 136.385 10.8722 136.589 11.0659C136.8 11.2541 137.082 11.3481 137.436 11.3481C137.929 11.3481 138.33 11.1794 138.64 10.8418C138.95 10.4987 139.104 10.0671 139.104 9.54688ZM157.142 13H154.527V8.15234C154.527 6.91829 154.074 6.30127 153.166 6.30127C152.734 6.30127 152.383 6.48665 152.112 6.85742C151.841 7.22819 151.705 7.69027 151.705 8.24365V13H149.082V8.10254C149.082 6.90169 148.637 6.30127 147.746 6.30127C147.297 6.30127 146.938 6.47835 146.667 6.83252C146.401 7.18669 146.268 7.66813 146.268 8.27686V13H143.645V4.5H146.268V5.82812H146.301C146.572 5.37435 146.951 5.00635 147.438 4.72412C147.931 4.43636 148.468 4.29248 149.049 4.29248C150.25 4.29248 151.071 4.82096 151.514 5.87793C152.162 4.82096 153.113 4.29248 154.37 4.29248C156.218 4.29248 157.142 5.43245 157.142 7.7124V13Z" fill="#86DAA2"/>
</svg>
