<svg width="144" height="15" viewBox="0 0 144 15" fill="none" xmlns="http://www.w3.org/2000/svg">
<path d="M1.09473 2.3418C0.851237 2.3418 0.643717 2.25879 0.472168 2.09277C0.300618 1.92676 0.214844 1.71647 0.214844 1.46191C0.214844 1.20736 0.300618 0.99707 0.472168 0.831055C0.643717 0.659505 0.851237 0.57373 1.09473 0.57373C1.34375 0.57373 1.55404 0.659505 1.72559 0.831055C1.90267 0.99707 1.99121 1.20736 1.99121 1.46191C1.99121 1.7054 1.90267 1.91292 1.72559 2.08447C1.55404 2.25602 1.34375 2.3418 1.09473 2.3418ZM1.75879 13H0.397461V4.5H1.75879V13ZM11.5703 13H10.209V8.15234C10.209 6.34831 9.55046 5.44629 8.2334 5.44629C7.55273 5.44629 6.98828 5.70361 6.54004 6.21826C6.09733 6.72738 5.87598 7.37207 5.87598 8.15234V13H4.51465V4.5H5.87598V5.91113H5.90918C6.55111 4.83757 7.48079 4.30078 8.69824 4.30078C9.62793 4.30078 10.339 4.60238 10.8315 5.20557C11.3241 5.80322 11.5703 6.66927 11.5703 7.80371V13ZM18.3438 1.61133C18.0781 1.46191 17.7765 1.38721 17.439 1.38721C16.4871 1.38721 16.0112 1.98763 16.0112 3.18848V4.5H18.0034V5.66211H16.0112V13H14.6582V5.66211H13.2056V4.5H14.6582V3.12207C14.6582 2.23112 14.9155 1.52832 15.4302 1.01367C15.9448 0.49349 16.5868 0.233398 17.356 0.233398C17.771 0.233398 18.1003 0.283203 18.3438 0.382812V1.61133ZM23.0254 13.1992C21.7692 13.1992 20.7648 12.8035 20.0122 12.0122C19.2651 11.2153 18.8916 10.1611 18.8916 8.84961C18.8916 7.42188 19.2817 6.3068 20.062 5.50439C20.8423 4.70199 21.8965 4.30078 23.2246 4.30078C24.4919 4.30078 25.4797 4.69092 26.188 5.47119C26.9019 6.25146 27.2588 7.33333 27.2588 8.7168C27.2588 10.0726 26.8742 11.16 26.105 11.979C25.3413 12.7925 24.3148 13.1992 23.0254 13.1992ZM23.125 5.44629C22.2507 5.44629 21.5589 5.74512 21.0498 6.34277C20.5407 6.9349 20.2861 7.75391 20.2861 8.7998C20.2861 9.80697 20.5435 10.6011 21.0581 11.1821C21.5728 11.7632 22.2617 12.0537 23.125 12.0537C24.0049 12.0537 24.68 11.7687 25.1504 11.1987C25.6263 10.6287 25.8643 9.81803 25.8643 8.7666C25.8643 7.7041 25.6263 6.88509 25.1504 6.30957C24.68 5.73405 24.0049 5.44629 23.125 5.44629ZM37.7178 9.51367H37.6763C37.2723 10.8307 36.4782 11.4893 35.2939 11.4893C34.5358 11.4893 33.9243 11.2098 33.4595 10.6509C33.0002 10.092 32.7705 9.33936 32.7705 8.39307C32.7705 7.14242 33.0887 6.10482 33.7251 5.28027C34.367 4.4502 35.2082 4.03516 36.2485 4.03516C36.647 4.03516 37.0011 4.13753 37.311 4.34229C37.6265 4.54704 37.8285 4.80436 37.917 5.11426H37.9502C37.9613 4.95931 37.9889 4.64111 38.0332 4.15967H39.0708C38.8107 7.20882 38.6807 8.76107 38.6807 8.81641C38.6807 9.96191 39.0099 10.5347 39.6685 10.5347C40.2661 10.5347 40.7614 10.2109 41.1543 9.56348C41.5527 8.91602 41.752 8.07764 41.752 7.04834C41.752 5.52653 41.2705 4.28418 40.3076 3.32129C39.3447 2.3584 38.0111 1.87695 36.3066 1.87695C34.6631 1.87695 33.3045 2.45247 32.231 3.60352C31.1574 4.75456 30.6206 6.19336 30.6206 7.91992C30.6206 9.61882 31.1297 10.9912 32.1479 12.0371C33.1717 13.0775 34.5496 13.5977 36.2817 13.5977C37.6486 13.5977 38.8162 13.3708 39.7847 12.917V13.9463C38.8273 14.3558 37.632 14.5605 36.1987 14.5605C34.1844 14.5605 32.5602 13.9546 31.3262 12.7427C30.0977 11.5252 29.4834 9.93424 29.4834 7.96973C29.4834 5.94434 30.1281 4.26481 31.4175 2.93115C32.7124 1.59749 34.3643 0.930664 36.373 0.930664C38.2546 0.930664 39.8123 1.48958 41.0464 2.60742C42.2804 3.72526 42.8975 5.18343 42.8975 6.98193C42.8975 8.29899 42.571 9.38086 41.918 10.2275C41.2705 11.0687 40.4792 11.4893 39.5439 11.4893C38.332 11.4893 37.7233 10.8307 37.7178 9.51367ZM36.2319 4.99805C35.5457 4.99805 34.9896 5.32454 34.5635 5.97754C34.1429 6.63053 33.9326 7.44124 33.9326 8.40967C33.9326 9.06266 34.0737 9.57731 34.356 9.95361C34.6437 10.3299 35.0256 10.5181 35.5015 10.5181C36.1877 10.5181 36.73 10.1777 37.1284 9.49707C37.5324 8.81087 37.7344 7.90332 37.7344 6.77441C37.7344 5.59017 37.2336 4.99805 36.2319 4.99805ZM51.7544 13H50.3931V11.6719H50.3599C49.7677 12.6901 48.8962 13.1992 47.7451 13.1992C46.8984 13.1992 46.2344 12.9751 45.7529 12.5269C45.277 12.0786 45.0391 11.4837 45.0391 10.7422C45.0391 9.15397 45.9743 8.22982 47.8447 7.96973L50.3931 7.61279C50.3931 6.16846 49.8092 5.44629 48.6416 5.44629C47.6178 5.44629 46.6937 5.79492 45.8691 6.49219V5.09766C46.7048 4.56641 47.6676 4.30078 48.7578 4.30078C50.7555 4.30078 51.7544 5.35775 51.7544 7.47168V13ZM50.3931 8.7002L48.3428 8.98242C47.7119 9.07096 47.236 9.22868 46.915 9.45557C46.5941 9.67692 46.4336 10.0726 46.4336 10.6426C46.4336 11.0576 46.5802 11.3979 46.8735 11.6636C47.1724 11.9237 47.568 12.0537 48.0605 12.0537C48.7357 12.0537 49.2918 11.8185 49.729 11.3481C50.1717 10.8722 50.3931 10.2718 50.3931 9.54688V8.7002ZM58.752 5.87793C58.514 5.69531 58.1709 5.604 57.7227 5.604C57.1416 5.604 56.6546 5.87793 56.2617 6.42578C55.8743 6.97363 55.6807 7.7207 55.6807 8.66699V13H54.3193V4.5H55.6807V6.25146H55.7139C55.9076 5.65381 56.2036 5.18896 56.6021 4.85693C57.0005 4.51937 57.446 4.35059 57.9385 4.35059C58.2926 4.35059 58.5638 4.38932 58.752 4.4668V5.87793ZM60.9268 2.3418C60.6833 2.3418 60.4757 2.25879 60.3042 2.09277C60.1326 1.92676 60.0469 1.71647 60.0469 1.46191C60.0469 1.20736 60.1326 0.99707 60.3042 0.831055C60.4757 0.659505 60.6833 0.57373 60.9268 0.57373C61.1758 0.57373 61.3861 0.659505 61.5576 0.831055C61.7347 0.99707 61.8232 1.20736 61.8232 1.46191C61.8232 1.7054 61.7347 1.91292 61.5576 2.08447C61.3861 2.25602 61.1758 2.3418 60.9268 2.3418ZM61.5908 13H60.2295V4.5H61.5908V13ZM71.4023 13H70.041V8.15234C70.041 6.34831 69.3825 5.44629 68.0654 5.44629C67.3848 5.44629 66.8203 5.70361 66.3721 6.21826C65.9294 6.72738 65.708 7.37207 65.708 8.15234V13H64.3467V4.5H65.708V5.91113H65.7412C66.3831 4.83757 67.3128 4.30078 68.5303 4.30078C69.46 4.30078 70.1711 4.60238 70.6636 5.20557C71.1561 5.80322 71.4023 6.66927 71.4023 7.80371V13ZM77.9185 12.917C77.5975 13.0941 77.1742 13.1826 76.6484 13.1826C75.1598 13.1826 74.4155 12.3525 74.4155 10.6924V5.66211H72.9546V4.5H74.4155V2.4248L75.7769 1.98486V4.5H77.9185V5.66211H75.7769V10.4517C75.7769 11.0216 75.8737 11.4284 76.0674 11.6719C76.2611 11.9154 76.582 12.0371 77.0303 12.0371C77.3734 12.0371 77.6694 11.943 77.9185 11.7549V12.917ZM86.5679 9.09033H80.5664C80.5885 10.0366 80.8431 10.7671 81.3301 11.2817C81.8171 11.7964 82.4867 12.0537 83.3389 12.0537C84.2962 12.0537 85.1761 11.7383 85.9785 11.1074V12.3857C85.2314 12.9281 84.2437 13.1992 83.0151 13.1992C81.8143 13.1992 80.8708 12.8146 80.1846 12.0454C79.4984 11.2707 79.1553 10.1833 79.1553 8.7832C79.1553 7.46061 79.5288 6.38428 80.2759 5.5542C81.0285 4.71859 81.9609 4.30078 83.0732 4.30078C84.1855 4.30078 85.0461 4.66048 85.6548 5.37988C86.2635 6.09928 86.5679 7.09814 86.5679 8.37646V9.09033ZM85.1733 7.93652C85.1678 7.15072 84.9769 6.53923 84.6006 6.10205C84.2298 5.66488 83.7124 5.44629 83.0483 5.44629C82.4064 5.44629 81.8613 5.67594 81.4131 6.13525C80.9648 6.59456 80.6882 7.19499 80.583 7.93652H85.1733ZM89.9961 13H88.6348V0.416016H89.9961V13ZM94.1133 13H92.752V0.416016H94.1133V13ZM103.701 9.09033H97.6992C97.7214 10.0366 97.9759 10.7671 98.4629 11.2817C98.9499 11.7964 99.6195 12.0537 100.472 12.0537C101.429 12.0537 102.309 11.7383 103.111 11.1074V12.3857C102.364 12.9281 101.376 13.1992 100.148 13.1992C98.9471 13.1992 98.0036 12.8146 97.3174 12.0454C96.6312 11.2707 96.2881 10.1833 96.2881 8.7832C96.2881 7.46061 96.6616 6.38428 97.4087 5.5542C98.1613 4.71859 99.0938 4.30078 100.206 4.30078C101.318 4.30078 102.179 4.66048 102.788 5.37988C103.396 6.09928 103.701 7.09814 103.701 8.37646V9.09033ZM102.306 7.93652C102.301 7.15072 102.11 6.53923 101.733 6.10205C101.363 5.66488 100.845 5.44629 100.181 5.44629C99.5392 5.44629 98.9941 5.67594 98.5459 6.13525C98.0977 6.59456 97.821 7.19499 97.7158 7.93652H102.306ZM111.562 12.6099C110.909 13.0028 110.134 13.1992 109.237 13.1992C108.025 13.1992 107.046 12.8063 106.299 12.0205C105.557 11.2292 105.187 10.2054 105.187 8.94922C105.187 7.54915 105.588 6.42578 106.39 5.5791C107.193 4.72689 108.263 4.30078 109.603 4.30078C110.35 4.30078 111.008 4.43913 111.578 4.71582V6.11035C110.947 5.66764 110.272 5.44629 109.553 5.44629C108.684 5.44629 107.97 5.75895 107.411 6.38428C106.858 7.00407 106.581 7.82031 106.581 8.83301C106.581 9.8291 106.841 10.6149 107.361 11.1904C107.887 11.766 108.59 12.0537 109.47 12.0537C110.211 12.0537 110.909 11.8075 111.562 11.3149V12.6099ZM117.563 12.917C117.242 13.0941 116.819 13.1826 116.293 13.1826C114.804 13.1826 114.06 12.3525 114.06 10.6924V5.66211H112.599V4.5H114.06V2.4248L115.421 1.98486V4.5H117.563V5.66211H115.421V10.4517C115.421 11.0216 115.518 11.4284 115.712 11.6719C115.906 11.9154 116.227 12.0371 116.675 12.0371C117.018 12.0371 117.314 11.943 117.563 11.7549V12.917ZM119.854 13.1826C119.599 13.1826 119.381 13.0913 119.198 12.9087C119.021 12.7261 118.933 12.5075 118.933 12.2529C118.933 11.9984 119.021 11.7798 119.198 11.5972C119.381 11.409 119.599 11.3149 119.854 11.3149C120.114 11.3149 120.335 11.409 120.518 11.5972C120.701 11.7798 120.792 11.9984 120.792 12.2529C120.792 12.5075 120.701 12.7261 120.518 12.9087C120.335 13.0913 120.114 13.1826 119.854 13.1826ZM129.151 13H127.79V11.6719H127.756C127.164 12.6901 126.293 13.1992 125.142 13.1992C124.295 13.1992 123.631 12.9751 123.149 12.5269C122.674 12.0786 122.436 11.4837 122.436 10.7422C122.436 9.15397 123.371 8.22982 125.241 7.96973L127.79 7.61279C127.79 6.16846 127.206 5.44629 126.038 5.44629C125.014 5.44629 124.09 5.79492 123.266 6.49219V5.09766C124.101 4.56641 125.064 4.30078 126.154 4.30078C128.152 4.30078 129.151 5.35775 129.151 7.47168V13ZM127.79 8.7002L125.739 8.98242C125.108 9.07096 124.632 9.22868 124.312 9.45557C123.991 9.67692 123.83 10.0726 123.83 10.6426C123.83 11.0576 123.977 11.3979 124.27 11.6636C124.569 11.9237 124.965 12.0537 125.457 12.0537C126.132 12.0537 126.688 11.8185 127.125 11.3481C127.568 10.8722 127.79 10.2718 127.79 9.54688V8.7002ZM143.785 13H142.424V8.11914C142.424 7.17839 142.277 6.49772 141.984 6.07715C141.696 5.65658 141.209 5.44629 140.523 5.44629C139.942 5.44629 139.447 5.71191 139.037 6.24316C138.633 6.77441 138.431 7.41081 138.431 8.15234V13H137.07V7.95312C137.07 6.2819 136.425 5.44629 135.136 5.44629C134.538 5.44629 134.046 5.69808 133.658 6.20166C133.271 6.69971 133.077 7.34993 133.077 8.15234V13H131.716V4.5H133.077V5.84473H133.11C133.714 4.81543 134.593 4.30078 135.75 4.30078C136.331 4.30078 136.837 4.46403 137.269 4.79053C137.701 5.11149 137.997 5.53483 138.157 6.06055C138.788 4.88737 139.729 4.30078 140.979 4.30078C142.85 4.30078 143.785 5.45459 143.785 7.76221V13Z" fill="white"/>
</svg>
