<svg width="77" height="68" viewBox="0 0 77 68" fill="none" xmlns="http://www.w3.org/2000/svg">
<path d="M63.7581 4.62994C66.366 7.07643 67.1751 11.0657 67.3196 14.7187C67.4713 18.522 66.4671 22.3586 64.2132 25.3487C62.6311 27.4495 60.4422 29.0399 57.9908 30.0128C57.6536 30.1463 54.9759 31.2623 54.646 30.9118C54.6604 30.9285 74.6906 52.3388 74.6906 52.3388H63.7508L34.3726 20.9279H54.8747C57.1046 20.6752 58.6361 18.9488 59.072 16.8194C59.4958 14.7497 59.1828 12.153 57.6488 10.6007C57.0372 9.98073 55.8259 9.05793 54.8747 9.05793C54.8434 9.05793 15.3513 9.05793 15.3513 9.05793V0.972141C19.6521 0.972141 23.9505 0.972141 28.2513 0.972141C35.4393 0.972141 42.6274 0.972141 49.813 0.972141C52.2644 0.972141 54.7519 0.697919 57.1768 1.16766C59.6427 1.64456 61.9448 2.92742 63.7581 4.62994Z" fill="#396D97"/>
<path d="M54.2084 55.232L27.6283 24L1 55.2916L10.2204 55.232L27.5175 34.9066L44.7183 55.1152L54.2084 55.232Z" fill="#86DAA2"/>
<path d="M0.847633 58.1167V65.0532H0V58.1167H0.847633Z" fill="white"/>
<path d="M12.9168 58.1167V65.0532H12.0957L8.2789 59.607H8.21147V65.0532H7.36383V58.1167H8.18498L12.0162 63.5772H12.0836V58.1167H12.9168Z" fill="white"/>
<path d="M19.0452 58.8607V58.1167H24.2996V58.8607H22.0962V65.0532H21.2486V58.8607H19.0452Z" fill="white"/>
<path d="M29.4939 58.4858H33.6743" stroke="#396D97" stroke-width="0.772268" stroke-miterlimit="10"/>
<path d="M29.7346 61.5857H32.5207" stroke="#396D97" stroke-width="0.772268" stroke-miterlimit="10"/>
<path d="M29.6094 64.6855H33.7898" stroke="#396D97" stroke-width="0.772268" stroke-miterlimit="10"/>
<path d="M65.9446 60.2863H65.097C65.0464 60.0454 64.9597 59.8332 64.8345 59.6496C64.7093 59.466 64.56 59.3134 64.3818 59.187C64.206 59.0606 64.0085 58.9676 63.7942 58.9033C63.5799 58.8413 63.3559 58.8079 63.1248 58.8079C62.7009 58.8079 62.3181 58.9152 61.9737 59.125C61.6293 59.3372 61.3572 59.6496 61.1574 60.0645C60.9551 60.477 60.854 60.9849 60.854 61.5858C60.854 62.1867 60.9551 62.6946 61.1574 63.1071C61.3596 63.5196 61.6318 63.832 61.9737 64.0442C62.3156 64.2564 62.7009 64.3637 63.1248 64.3637C63.3583 64.3637 63.5799 64.3327 63.7942 64.2684C64.0085 64.2064 64.2036 64.111 64.3818 63.9846C64.5575 63.8582 64.7093 63.7056 64.8345 63.5196C64.9597 63.336 65.0464 63.1238 65.097 62.8853H65.9446C65.8796 63.2406 65.764 63.5578 65.5954 63.8368C65.4269 64.1157 65.2173 64.3542 64.9669 64.5497C64.7165 64.7453 64.4347 64.8931 64.1241 64.9956C63.8135 65.0982 63.4812 65.1482 63.1272 65.1482C62.53 65.1482 61.9978 65.0028 61.533 64.7143C61.0683 64.4257 60.7022 64.0156 60.4349 63.4815C60.1677 62.9473 60.0352 62.3155 60.0352 61.5834C60.0352 60.8514 60.1677 60.2195 60.4349 59.6878C60.7022 59.156 61.0683 58.7435 61.533 58.455C61.9978 58.1664 62.53 58.021 63.1272 58.021C63.4812 58.021 63.8135 58.0711 64.1241 58.1736C64.4347 58.2761 64.7165 58.424 64.9669 58.6195C65.2173 58.815 65.4269 59.0511 65.5954 59.3301C65.764 59.6114 65.8796 59.931 65.9446 60.2863Z" fill="white"/>
<path d="M71.7456 58.8655V58.1216H77V58.8655H74.7966V65.0581H73.949V58.8655H71.7456Z" fill="white"/>
<path d="M38.9864 65.0532V58.1167H39.834V64.3092H43.0897V65.0532H38.9864Z" fill="white"/>
<path d="M45.3484 60.8489V67.0915H44.5851V61.5189H41.6545V60.8489H45.3484Z" fill="white"/>
<path d="M50.5427 58.4858H54.723" stroke="#396D97" stroke-width="0.772268" stroke-miterlimit="10"/>
<path d="M50.7835 61.5857H53.5696" stroke="#396D97" stroke-width="0.772268" stroke-miterlimit="10"/>
<path d="M50.6585 64.6855H54.8389" stroke="#396D97" stroke-width="0.772268" stroke-miterlimit="10"/>
</svg>
