<svg width="465" height="456" viewBox="0 0 465 456" fill="none" xmlns="http://www.w3.org/2000/svg">
<path d="M164.176 194.377L196.674 3.88132L194.056 2.7965L197.975 0.576779C198.735 0.0927797 199.816 0.126158 200.999 0.810433L460.701 148.964C462.829 150.183 464.451 153.304 464.079 155.49L431.327 347.487C431.158 348.489 430.651 349.156 429.959 349.44L426.125 351.626L425.466 348.088L425.685 348.155L167.554 200.902C165.426 199.684 163.804 196.563 164.176 194.377Z" fill="url(#paint0_linear_81_710)"/>
<path d="M459.265 154.171L463.539 152.302C464.012 153.387 464.248 154.522 464.096 155.473L431.344 347.471C431.175 348.472 430.668 349.14 429.976 349.423L426.142 351.61L425.483 348.072L425.702 348.138L412.645 340.695L459.282 154.155L459.265 154.171Z" fill="url(#paint1_linear_81_710)"/>
<path d="M163.466 203.206L423.169 351.359C425.179 352.511 426.885 351.843 427.239 349.791L459.992 157.793C460.363 155.607 458.759 152.486 456.613 151.267L196.928 3.11359C194.918 1.962 193.212 2.62959 192.857 4.68241L160.105 196.68C159.733 198.866 161.338 201.987 163.483 203.206H163.466Z" fill="#396D97"/>
<g opacity="0.51">
<path d="M200.323 15.3638L450.651 158.177L419.605 339.009L169.446 196.296L200.323 15.3638Z" fill="#396D97"/>
</g>
<path d="M0.212631 294.114L14.3844 301.424L156.507 220.346C158.889 218.994 163.044 219.161 165.78 220.73L410.889 360.555C413.237 359.254 423.929 354.18 423.929 354.18L418.743 367.532H418.726C418.507 368.133 418.051 368.683 417.274 369.117L267.601 454.501C265.219 455.853 261.064 455.686 258.327 454.118L7.49274 311.037C6.36103 310.386 5.66849 309.619 5.38134 308.834H5.36446L0.212631 294.131V294.114Z" fill="url(#paint2_linear_81_710)"/>
<path d="M2.40849 296.417L259.476 443.069C262.297 444.671 266.553 444.855 268.986 443.453L422.392 355.949C424.824 354.564 424.52 352.127 421.716 350.525L164.649 203.873C161.828 202.271 157.571 202.087 155.139 203.489L1.73282 290.993C-0.699513 292.378 -0.395455 294.815 2.40849 296.417Z" fill="url(#paint3_linear_81_710)"/>
<path d="M337.007 411.342V408.555C337.007 408.288 336.838 408.171 336.652 408.288L326.703 413.962C326.5 414.079 326.348 414.379 326.348 414.647V417.434C326.348 417.701 326.517 417.818 326.703 417.701L336.652 412.026C336.855 411.909 337.007 411.609 337.007 411.342Z" fill="#2859CB"/>
<path d="M322.142 419.82V417.033C322.142 416.766 321.973 416.649 321.788 416.766L311.839 422.441C311.636 422.557 311.484 422.858 311.484 423.125V425.912C311.484 426.179 311.653 426.296 311.839 426.179L321.788 420.505C321.99 420.388 322.142 420.087 322.142 419.82Z" fill="#2859CB"/>
<path d="M382.393 347.738L168.77 225.87C167.351 225.052 165.595 225.052 164.176 225.87L88.0976 269.363C86.9997 269.981 86.9997 271.55 88.0976 272.167L301.62 393.968C303.038 394.786 304.795 394.786 306.214 393.968L382.393 350.542C383.491 349.924 383.491 348.355 382.393 347.738Z" fill="#ADC8FF"/>
<path d="M382.393 350.542L381.633 350.976L168.77 229.542C167.351 228.724 165.595 228.724 164.176 229.542L88.8746 272.584L88.1145 272.15C87.0166 271.533 87.0166 269.964 88.1145 269.347L164.193 225.853C165.611 225.036 167.368 225.036 168.787 225.853L382.41 347.721C383.508 348.339 383.508 349.907 382.41 350.525L382.393 350.542Z" fill="#91AFFF"/>
<path d="M158.416 236.902L343.983 342.748L352.242 338.041L166.676 232.195L158.416 236.902Z" fill="#396D97"/>
<path d="M138.197 248.434L312.244 347.721L320.504 343.015L146.44 243.728L138.197 248.434Z" fill="#396D97"/>
<path d="M125.022 255.945L329.946 372.856L338.189 368.149L133.265 251.238L125.022 255.945Z" fill="#396D97"/>
<path d="M111.847 263.472L316.771 380.366L325.014 375.659L120.107 258.765L111.847 263.472Z" fill="#396D97"/>
<path d="M98.6715 270.982L303.596 387.876L311.839 383.17L106.931 266.276L98.6715 270.982Z" fill="#396D97"/>
<path d="M355.198 349.14L363.441 353.846L371.701 349.14L363.441 344.433L355.198 349.14Z" fill="#396D97"/>
<path d="M326.095 355.615L343.223 365.395L351.465 360.689L334.338 350.909L326.095 355.615Z" fill="#396D97"/>
<path d="M160.544 377.228L102.945 344.367C100.698 343.081 100.698 340.995 102.945 339.71L142.335 317.246C144.582 315.961 148.23 315.961 150.494 317.246L208.093 350.108C210.339 351.393 210.339 353.479 208.093 354.764L168.703 377.228C166.456 378.513 162.807 378.513 160.544 377.228Z" fill="url(#paint4_linear_81_710)"/>
<path d="M208.076 352.01L150.477 319.148C148.23 317.863 144.582 317.863 142.318 319.148L102.928 341.613C102.236 342.013 101.78 342.481 101.509 342.981C100.918 341.863 101.374 340.595 102.928 339.71L142.318 317.246C144.565 315.961 148.213 315.961 150.477 317.246L208.076 350.108C209.63 350.992 210.086 352.261 209.495 353.379C209.225 352.878 208.768 352.394 208.076 352.01Z" fill="#91AFFF"/>
<g opacity="0.11">
<mask id="mask0_81_710" style="mask-type:luminance" maskUnits="userSpaceOnUse" x="169" y="15" width="282" height="325">
<path d="M200.323 15.3638L450.651 158.177L419.605 339.009L169.446 196.296L200.323 15.3638Z" fill="white"/>
</mask>
<g mask="url(#mask0_81_710)">
<path d="M164.378 203.573L421.446 350.224C424.267 351.827 428.523 352.01 430.956 350.608L584.362 263.105C586.794 261.719 586.49 259.283 583.686 257.68L326.619 111.029C323.798 109.427 319.541 109.243 317.109 110.645L163.703 198.149C161.27 199.534 161.574 201.971 164.378 203.573Z" fill="url(#paint5_linear_81_710)"/>
<path d="M422.206 229.859L364.607 196.997C362.36 195.712 362.36 193.626 364.607 192.341L403.997 169.876C406.244 168.591 409.892 168.591 412.156 169.876L469.755 202.738C472.001 204.023 472.001 206.109 469.755 207.395L430.364 229.859C428.118 231.144 424.469 231.144 422.206 229.859Z" fill="url(#paint6_linear_81_710)"/>
<path d="M469.755 204.641L412.156 171.779C409.909 170.494 406.261 170.494 403.997 171.779L364.607 194.243C363.914 194.644 363.458 195.111 363.188 195.612C362.597 194.494 363.053 193.225 364.607 192.341L403.997 169.876C406.244 168.591 409.892 168.591 412.156 169.876L469.755 202.738C471.309 203.623 471.765 204.891 471.174 206.009C470.903 205.509 470.447 205.025 469.755 204.641Z" fill="#91AFFF"/>
<path d="M495.075 281.213L281.451 159.345C280.033 158.527 278.276 158.527 276.857 159.345L200.779 202.838C199.681 203.456 199.681 205.025 200.779 205.642L414.301 327.443C415.72 328.261 417.476 328.261 418.895 327.443L495.075 284.017C496.173 283.399 496.173 281.83 495.075 281.213Z" fill="#ADC8FF"/>
<path d="M495.075 284.017L494.314 284.451L281.451 163.017C280.032 162.199 278.276 162.199 276.857 163.017L201.556 206.06L200.796 205.626C199.698 205.008 199.698 203.439 200.796 202.822L276.874 159.329C278.293 158.511 280.049 158.511 281.468 159.329L495.091 281.196C496.189 281.814 496.189 283.383 495.091 284L495.075 284.017Z" fill="#91AFFF"/>
<path d="M220.694 199.868L406.784 306.03L399.42 310.236L213.312 204.073L220.694 199.868Z" fill="#242993"/>
<path d="M240.288 188.686L417.189 289.591L409.808 293.797L232.923 192.891L240.288 188.686Z" fill="#242993"/>
<path d="M430.381 297.118L446.918 306.548L439.536 310.753L423.017 301.324L430.381 297.118Z" fill="#242993"/>
<path d="M415.804 311.171L427.307 317.73L419.926 321.936L408.423 315.376L415.804 311.171Z" fill="#242993"/>
<path d="M252.584 181.676L459.198 299.538L451.833 303.744L245.203 185.882L252.584 181.676Z" fill="#242993"/>
<path d="M264.864 174.666L471.478 292.528L464.113 296.734L257.5 178.872L264.864 174.666Z" fill="#242993"/>
<path d="M277.161 167.657L483.774 285.519L476.393 289.725L269.78 171.862L277.161 167.657Z" fill="#242993"/>
</g>
</g>
<defs>
<linearGradient id="paint0_linear_81_710" x1="464.147" y1="175.935" x2="164.125" y2="175.935" gradientUnits="userSpaceOnUse">
<stop stop-color="#C0D6FF"/>
<stop offset="0.3" stop-color="#C4DAFF"/>
<stop offset="0.65" stop-color="#D3E9FF"/>
<stop offset="1" stop-color="#E9FFFF"/>
</linearGradient>
<linearGradient id="paint1_linear_81_710" x1="464.13" y1="251.956" x2="412.629" y2="251.956" gradientUnits="userSpaceOnUse">
<stop stop-color="#5778FF"/>
<stop offset="0.18" stop-color="#5B7CFF"/>
<stop offset="0.39" stop-color="#6A89FF"/>
<stop offset="0.61" stop-color="#819FFF"/>
<stop offset="0.85" stop-color="#A2BDFF"/>
<stop offset="1" stop-color="#BCD5FF"/>
</linearGradient>
<linearGradient id="paint2_linear_81_710" x1="423.946" y1="337.424" x2="0.229502" y2="337.424" gradientUnits="userSpaceOnUse">
<stop stop-color="#5778FF"/>
<stop offset="0.18" stop-color="#5B7CFF"/>
<stop offset="0.39" stop-color="#6A89FF"/>
<stop offset="0.61" stop-color="#819FFF"/>
<stop offset="0.85" stop-color="#A2BDFF"/>
<stop offset="1" stop-color="#BCD5FF"/>
</linearGradient>
<linearGradient id="paint3_linear_81_710" x1="281.57" y1="323.454" x2="-142.366" y2="323.454" gradientUnits="userSpaceOnUse">
<stop stop-color="#C0D6FF"/>
<stop offset="0.3" stop-color="#C4DAFF"/>
<stop offset="0.65" stop-color="#D3E9FF"/>
<stop offset="1" stop-color="#E9FFFF"/>
</linearGradient>
<linearGradient id="paint4_linear_81_710" x1="209.782" y1="347.237" x2="101.256" y2="347.237" gradientUnits="userSpaceOnUse">
<stop stop-color="#C0D6FF"/>
<stop offset="0.3" stop-color="#C4DAFF"/>
<stop offset="0.65" stop-color="#D3E9FF"/>
<stop offset="1" stop-color="#E9FFFF"/>
</linearGradient>
<linearGradient id="paint5_linear_81_710" x1="443.54" y1="230.61" x2="19.6038" y2="230.61" gradientUnits="userSpaceOnUse">
<stop stop-color="#C0D6FF"/>
<stop offset="0.3" stop-color="#C4DAFF"/>
<stop offset="0.65" stop-color="#D3E9FF"/>
<stop offset="1" stop-color="#E9FFFF"/>
</linearGradient>
<linearGradient id="paint6_linear_81_710" x1="471.444" y1="199.868" x2="362.935" y2="199.868" gradientUnits="userSpaceOnUse">
<stop stop-color="#C0D6FF"/>
<stop offset="0.3" stop-color="#C4DAFF"/>
<stop offset="0.65" stop-color="#D3E9FF"/>
<stop offset="1" stop-color="#E9FFFF"/>
</linearGradient>
</defs>
</svg>
