<svg width="876" height="513" viewBox="0 0 876 513" fill="none" xmlns="http://www.w3.org/2000/svg">
<g clip-path="url(#clip0_81_708)">
<path opacity="0.8" d="M852.044 0.871948C850.236 -0.146606 847.297 -0.146606 845.49 0.871948C844.122 1.64408 843.784 2.7612 844.476 3.69761L742.926 60.7202V132.693L718.181 146.591V224.888L633.438 272.465L620.229 265.055L685.581 228.355V185.444L685.327 185.296L611.04 143.585V129.029L653.048 105.438C654.856 106.177 657.406 106.095 659.028 105.175C660.835 104.157 660.835 102.514 659.028 101.495C657.22 100.477 654.281 100.477 652.474 101.495C650.835 102.415 650.7 103.845 652.001 104.863L609.993 128.454V144.176L610.246 144.324L684.533 186.035V227.78L635.16 255.511V237.637L657.795 224.921C659.602 225.66 662.153 225.578 663.774 224.658C665.582 223.64 665.582 221.997 663.774 220.978C661.967 219.96 659.028 219.96 657.22 220.978C655.582 221.898 655.447 223.328 656.747 224.346L634.113 237.062V256.102L619.181 264.48L601.53 254.558V223.426L634.84 204.731V183.21L634.586 183.062L564.471 143.683C565.788 142.665 565.636 141.235 563.998 140.315C562.19 139.297 559.251 139.297 557.444 140.315C555.637 141.334 555.637 142.977 557.444 143.995C559.082 144.915 561.616 144.997 563.423 144.258L633.792 183.768V204.123L601.53 222.243V200.788L601.277 200.64L558.373 176.556C559.69 175.538 559.538 174.108 557.9 173.188C556.093 172.17 553.154 172.17 551.346 173.188C549.539 174.207 549.539 175.85 551.346 176.868C552.985 177.788 555.518 177.87 557.326 177.131L600.483 201.363V253.966L588.085 247.001L567.646 258.468L549.133 248.069V222.818L548.88 222.67L499.946 195.202V171.398C500.96 171.332 501.939 171.102 502.699 170.658C504.507 169.64 504.507 167.997 502.699 166.978C500.892 165.96 497.953 165.96 496.146 166.978C494.338 167.997 494.338 169.64 496.146 170.658C496.923 171.086 497.902 171.332 498.899 171.398V195.794L499.152 195.942L548.086 223.41V247.494L468.444 202.776V155.38L511.635 131.132H551.279L551.397 131.066L619.401 92.8704C621.208 93.6097 623.759 93.5275 625.38 92.6076C627.188 91.589 627.188 89.9462 625.38 88.9276C623.573 87.9091 620.634 87.9091 618.827 88.9276C617.188 89.8476 617.053 91.2769 618.354 92.2954L550.975 130.13H513.409L467.38 154.805V203.367L467.633 203.515L566.565 259.059L546.65 270.247L377.755 175.406V118.811L377.502 118.663L320.072 86.4141C321.389 85.3955 321.237 83.9663 319.599 83.0463C317.791 82.0277 314.852 82.0277 313.045 83.0463C311.238 84.0648 311.238 85.7077 313.045 86.7262C314.683 87.6462 317.217 87.7284 319.024 86.9891L376.725 119.386V175.981L376.978 176.129L545.62 270.822L526.668 281.467L359.648 187.678H260.04L197.779 152.719V98.9982C198.438 98.8667 199.063 98.6696 199.587 98.3739C201.394 97.3553 201.394 95.7125 199.587 94.694C197.779 93.6754 194.84 93.6754 193.033 94.694C191.225 95.7125 191.225 97.3553 193.033 98.3739C194.046 98.9489 195.431 99.1789 196.749 99.1132V153.294L197.002 153.442L259.753 188.68H359.361L500.352 267.848H471.991L423.868 240.824H386.792L386.674 240.889L335.274 269.754C333.466 269.015 330.916 269.097 329.294 270.017C327.487 271.035 327.487 272.678 329.294 273.697C331.102 274.715 334.041 274.715 335.848 273.697C337.487 272.777 337.622 271.347 336.321 270.329L387.096 241.826H423.598L471.721 268.85H502.159L525.638 282.026L475.049 310.43L460.657 302.348V281.139L424.105 260.62C425.422 259.601 425.27 258.172 423.632 257.252C421.824 256.233 418.885 256.233 417.078 257.252C415.271 258.271 415.271 259.913 417.078 260.932C418.716 261.852 421.25 261.934 423.057 261.195L459.61 281.714V301.756L420.642 279.874H402.18L402.062 279.939L380.052 292.294C378.245 291.554 375.694 291.636 374.073 292.556C372.266 293.575 372.266 295.218 374.073 296.236C375.88 297.255 378.819 297.255 380.627 296.236C382.265 295.316 382.4 293.887 381.1 292.868L402.467 280.876H420.372L474.018 310.989L464.272 316.46L495.369 333.923L480.808 342.104H458.782L443.023 333.249C444.273 332.231 444.104 330.834 442.499 329.931C440.692 328.912 437.753 328.912 435.945 329.931C434.138 330.949 434.138 332.592 435.945 333.611C437.601 334.547 440.185 334.613 442.009 333.841L458.512 343.106H479.018L441.874 363.954L354.496 314.882H291.627L291.509 314.948L256.105 334.826C254.297 334.087 251.747 334.169 250.108 335.089C248.301 336.108 248.301 337.751 250.108 338.769C251.916 339.788 254.855 339.788 256.662 338.769C258.3 337.849 258.436 336.42 257.135 335.401L291.897 315.885H354.209L421.605 353.719H392.755L364.563 337.882C365.881 336.863 365.729 335.434 364.09 334.514C362.283 333.496 359.344 333.496 357.536 334.514C355.729 335.533 355.729 337.176 357.536 338.194C359.175 339.114 361.709 339.196 363.516 338.457L392.467 354.721H423.395L440.827 364.512L396.471 389.418H254.703L144.572 327.581C145.889 326.563 145.737 325.134 144.099 324.214C142.292 323.195 139.353 323.195 137.545 324.214C135.738 325.232 135.738 326.875 137.545 327.894C139.184 328.814 141.717 328.896 143.525 328.156L254.416 390.436H394.663L377.063 400.31H272.118L271.999 400.375L220.245 429.437C218.437 428.698 215.887 428.78 214.248 429.7C212.441 430.718 212.441 432.361 214.248 433.38C216.056 434.398 218.995 434.398 220.802 433.38C222.44 432.46 222.576 431.03 221.275 430.012L272.388 401.312H377.333L377.451 401.246L496.382 334.465L509.591 341.874L384.562 412.089H293.113L292.995 412.154L182.543 474.171H29.5765L0 457.562V458.729L29.3063 475.173H182.881L182.999 475.108L252.321 436.189V459.221L206.63 484.882C204.823 484.143 202.272 484.225 200.651 485.145C198.843 486.164 198.843 487.807 200.651 488.825C202.458 489.844 205.397 489.844 207.205 488.825C208.843 487.905 208.978 486.476 207.678 485.457L253.368 459.796V435.729H253.132L293.468 413.074H384.917L385.035 413.009L510.706 342.433L525.705 350.86L281.847 487.79V512.531H282.877V488.365L526.736 351.435L545.265 361.834L419.476 432.476V445.11L397.18 457.628V486.673L353.939 510.954C352.131 510.215 349.581 510.297 347.959 511.217C347.3 511.595 346.878 512.038 346.709 512.531H355.746C355.611 512.186 355.374 511.841 354.986 511.546L398.227 487.265V458.219L419.493 446.276V492.784L432.044 499.832L409.426 512.531H411.504L433.074 500.424L454.644 512.531H456.722L420.524 492.209V433.068L546.313 362.426L563.187 371.905L474.17 421.896C472.363 421.157 469.812 421.239 468.174 422.159C466.367 423.178 466.367 424.821 468.174 425.839C469.981 426.858 472.92 426.858 474.728 425.839C476.366 424.919 476.501 423.49 475.201 422.471L564.217 372.48L580.5 381.631L474.018 441.43H445.084C444.915 440.937 444.492 440.477 443.817 440.099C442.009 439.08 439.07 439.08 437.263 440.099C435.456 441.117 435.456 442.76 437.263 443.779C439.07 444.797 442.009 444.797 443.817 443.779C444.492 443.401 444.915 442.925 445.084 442.448H474.305L474.424 442.382L581.548 382.238L588.118 385.935L593.186 383.093L618.692 397.418V417.362L597.611 429.19V429.141H564.538L564.42 429.207L528.121 449.594C526.313 448.855 523.763 448.937 522.141 449.857C520.334 450.876 520.334 452.519 522.141 453.537C523.949 454.556 526.888 454.556 528.695 453.537C530.334 452.617 530.469 451.188 529.168 450.169L564.825 430.143H595.922L533.965 464.938C532.141 464.133 529.523 464.199 527.851 465.136C526.043 466.154 526.043 467.797 527.851 468.816C529.658 469.834 532.597 469.834 534.404 468.816C535.992 467.928 536.178 466.532 534.979 465.53L612.273 422.126V431.72L566.295 457.546V475.781L528.864 496.809C527.057 496.07 524.506 496.152 522.868 497.072C521.06 498.091 521.06 499.734 522.868 500.752C524.675 501.771 527.614 501.771 529.421 500.752C531.06 499.832 531.195 498.403 529.894 497.384L567.325 476.356V458.121L613.303 432.295V421.535L619.739 417.921V396.81L594.233 382.485L611.006 373.071L663.504 402.544V436.058L627.863 456.067C626.039 455.279 623.421 455.328 621.749 456.264C619.941 457.283 619.941 458.926 621.749 459.944C623.556 460.963 626.495 460.963 628.303 459.944C629.89 459.057 630.093 457.661 628.877 456.659L663.504 437.208V464.281L636.14 479.642V512.515H637.17V480.233L663.487 465.448V512.515H664.517V401.952L612.019 372.48L630.853 361.9L699.465 400.425V492.177L732.437 510.691V512.498H733.467V510.116L700.479 491.602V399.85L631.867 361.325L645.819 353.489L738.416 405.484V483.782L789.614 512.531H791.691L739.464 483.207V404.909L646.866 352.914L669.483 340.215L823.548 426.726V465.678L876.35 495.331V494.164L824.595 465.103V426.151L737.944 377.491H806.471L876.35 416.738V415.571L806.741 376.489H736.136L670.531 339.64L696.813 324.887L753.213 356.561H843.767L876.367 374.862V373.696L869.222 369.687H876.367V368.685H867.432L844.054 355.559H753.5L737.724 346.704H776.219L776.337 346.638L795.644 335.796H876.097L876.367 335.943V334.777H797.451L819.19 322.571C820.998 323.31 823.548 323.228 825.17 322.308C826.977 321.289 826.977 319.647 825.17 318.628C823.362 317.61 820.423 317.61 818.616 318.628C816.978 319.548 816.842 320.977 818.143 321.996L775.932 345.702H735.917L697.861 324.329L711.931 316.427L702.877 311.35H729.177L763.567 330.654C762.25 331.672 762.402 333.101 764.04 334.021C765.848 335.04 768.787 335.04 770.594 334.021C772.402 333.003 772.402 331.36 770.594 330.341C768.956 329.421 766.422 329.339 764.615 330.079L729.464 310.348H701.087L681.848 299.538L693.688 292.885H714.684L733.146 282.519H746.913L778.009 299.982C776.608 301.001 776.726 302.463 778.398 303.399C780.205 304.418 783.144 304.418 784.952 303.399C786.759 302.38 786.759 300.738 784.952 299.719C783.347 298.816 780.864 298.717 779.057 299.407L747.166 281.5H732.842L714.38 291.866H695.462L733.298 270.625H753.737L796.32 294.544H876.367V293.526H796.59L754.007 269.606H733.028L732.91 269.672L680.8 298.931L667.136 291.259L726.018 258.188H767.554L801.809 277.426H876.384V276.407H802.096L769.631 258.172H876.384V257.153H725.748L725.63 257.219L666.105 290.651L650.565 281.927L732.673 235.813H876.384V234.794H771.658L876.384 175.998V174.831L769.581 234.794H733.434L811.285 191.079V181.435L848.53 160.522C850.338 161.261 852.888 161.179 854.51 160.259C856.317 159.241 856.317 157.598 854.51 156.579C852.702 155.561 849.763 155.561 847.956 156.579C846.318 157.499 846.182 158.929 847.483 159.947L827.197 171.332V144.932L876.367 117.316V116.149L826.166 144.34V171.907L810.238 180.844V190.487L731.744 234.564L731.998 235.008L649.501 281.336L634.502 272.908L719.245 225.332V147.034L876.367 58.8146V57.6481L743.991 131.986V61.1802L845.27 4.42046C845.338 4.46974 845.405 4.51903 845.473 4.56831C847.28 5.58687 850.219 5.58687 852.027 4.56831C853.834 3.54976 853.834 1.90693 852.027 0.888376L852.044 0.871948Z" fill="url(#paint0_radial_81_708)"/>
<path d="M507.176 229.258L539.674 41.7457L537.056 40.6779L540.975 38.4929C541.735 38.0165 542.816 38.0494 543.999 38.7229L803.701 184.557C805.829 185.756 807.451 188.828 807.079 190.98L774.327 379.971C774.158 380.957 773.651 381.614 772.959 381.894L769.125 384.046L768.466 380.563L768.685 380.629L510.554 235.682C508.426 234.482 506.804 231.41 507.176 229.258Z" fill="url(#paint1_linear_81_708)"/>
<path d="M802.265 189.683L806.539 187.843C807.012 188.91 807.248 190.027 807.096 190.964L774.344 379.955C774.175 380.941 773.668 381.598 772.976 381.877L769.142 384.029L768.483 380.546L768.702 380.612L755.645 373.285L802.282 189.666L802.265 189.683Z" fill="url(#paint2_linear_81_708)"/>
<path d="M506.466 237.949L766.169 383.783C768.179 384.916 769.885 384.259 770.239 382.239L802.992 193.248C803.363 191.095 801.759 188.023 799.613 186.824L539.928 40.9901C537.918 39.8565 536.212 40.5136 535.857 42.5343L503.105 231.525C502.733 233.678 504.338 236.75 506.483 237.949H506.466Z" fill="#396D97"/>
<g opacity="0.51">
<path d="M543.323 53.0483L793.651 193.625L762.605 371.626L512.446 231.148L543.323 53.0483Z" fill="#396D97"/>
</g>
<path d="M343.213 327.434L357.384 334.629L499.507 254.821C501.889 253.49 506.044 253.654 508.78 255.199L753.889 392.835C756.237 391.553 766.929 386.559 766.929 386.559L761.743 399.702H761.726C761.507 400.293 761.051 400.835 760.274 401.263L610.601 485.31C608.219 486.64 604.064 486.476 601.327 484.932L350.493 344.092C349.361 343.451 348.668 342.696 348.381 341.924H348.364L343.213 327.45V327.434Z" fill="url(#paint3_linear_81_708)"/>
<path d="M345.408 329.701L602.476 474.056C605.297 475.633 609.553 475.814 611.986 474.434L765.392 388.301C767.824 386.937 767.52 384.539 764.716 382.961L507.649 238.606C504.828 237.029 500.571 236.848 498.139 238.228L344.733 324.362C342.3 325.725 342.605 328.124 345.408 329.701Z" fill="url(#paint4_linear_81_708)"/>
<path d="M680.007 442.826V440.083C680.007 439.82 679.838 439.705 679.652 439.82L669.703 445.405C669.5 445.52 669.348 445.816 669.348 446.079V448.822C669.348 449.085 669.517 449.2 669.703 449.085L679.652 443.5C679.855 443.385 680.007 443.089 680.007 442.826Z" fill="#2859CB"/>
<path d="M665.142 451.172V448.428C665.142 448.165 664.973 448.05 664.788 448.165L654.839 453.751C654.636 453.866 654.484 454.162 654.484 454.425V457.168C654.484 457.431 654.653 457.546 654.839 457.431L664.788 451.845C664.99 451.73 665.142 451.435 665.142 451.172Z" fill="#2859CB"/>
<path d="M725.393 380.218L511.77 260.259C510.351 259.454 508.595 259.454 507.176 260.259L431.098 303.071C430 303.679 430 305.223 431.098 305.831L644.62 425.724C646.038 426.529 647.795 426.529 649.214 425.724L725.393 382.978C726.491 382.37 726.491 380.826 725.393 380.218Z" fill="#ADC8FF"/>
<path d="M725.393 382.978L724.633 383.405L511.77 263.873C510.351 263.068 508.595 263.068 507.176 263.873L431.875 306.241L431.114 305.814C430.017 305.206 430.017 303.662 431.114 303.054L507.193 260.242C508.611 259.437 510.368 259.437 511.787 260.242L725.41 380.202C726.508 380.809 726.508 382.354 725.41 382.962L725.393 382.978Z" fill="#91AFFF"/>
<path d="M501.416 271.118L686.983 375.306L695.242 370.673L509.676 266.485L501.416 271.118Z" fill="#396D97"/>
<path d="M481.197 282.47L655.244 380.202L663.504 375.569L489.44 277.837L481.197 282.47Z" fill="#396D97"/>
<path d="M468.022 289.862L672.946 404.943L681.189 400.31L476.265 285.23L468.022 289.862Z" fill="#396D97"/>
<path d="M454.847 297.271L659.771 412.335L668.014 407.702L463.107 292.639L454.847 297.271Z" fill="#396D97"/>
<path d="M441.672 304.664L646.596 419.728L654.839 415.095L449.931 300.031L441.672 304.664Z" fill="#396D97"/>
<path d="M698.198 381.598L706.441 386.231L714.701 381.598L706.441 376.965L698.198 381.598Z" fill="#396D97"/>
<path d="M669.095 387.972L686.223 397.599L694.465 392.966L677.338 383.339L669.095 387.972Z" fill="#396D97"/>
<path d="M503.544 409.247L445.945 376.899C443.698 375.634 443.698 373.581 445.945 372.316L485.335 350.203C487.582 348.939 491.23 348.939 493.494 350.203L551.093 382.551C553.339 383.816 553.339 385.869 551.093 387.134L511.703 409.247C509.456 410.512 505.807 410.512 503.544 409.247Z" fill="url(#paint5_linear_81_708)"/>
<path d="M551.076 384.424L493.477 352.076C491.23 350.811 487.582 350.811 485.318 352.076L445.928 374.189C445.236 374.583 444.78 375.043 444.509 375.536C443.918 374.435 444.374 373.187 445.928 372.316L485.318 350.203C487.565 348.939 491.213 348.939 493.477 350.203L551.076 382.551C552.63 383.421 553.086 384.67 552.495 385.771C552.225 385.278 551.768 384.801 551.076 384.424Z" fill="#91AFFF"/>
<g opacity="0.11">
<mask id="mask0_81_708" style="mask-type:luminance" maskUnits="userSpaceOnUse" x="512" y="53" width="282" height="319">
<path d="M543.323 53.0483L793.651 193.625L762.605 371.626L512.446 231.148L543.323 53.0483Z" fill="white"/>
</mask>
<g mask="url(#mask0_81_708)">
<path d="M507.378 238.31L764.446 382.666C767.267 384.243 771.523 384.423 773.956 383.043L927.362 296.91C929.794 295.546 929.49 293.148 926.686 291.571L669.619 147.215C666.798 145.638 662.541 145.457 660.109 146.837L506.703 232.971C504.27 234.335 504.574 236.733 507.378 238.31Z" fill="url(#paint6_linear_81_708)"/>
<path d="M765.206 264.185L707.607 231.837C705.36 230.572 705.36 228.519 707.607 227.254L746.997 205.141C749.244 203.877 752.892 203.877 755.156 205.141L812.755 237.489C815.001 238.754 815.001 240.807 812.755 242.072L773.364 264.185C771.118 265.45 767.469 265.45 765.206 264.185Z" fill="url(#paint7_linear_81_708)"/>
<path d="M812.755 239.362L755.156 207.014C752.909 205.749 749.261 205.749 746.997 207.014L707.607 229.127C706.914 229.521 706.458 229.981 706.188 230.474C705.597 229.373 706.053 228.125 707.607 227.254L746.997 205.141C749.244 203.877 752.892 203.877 755.156 205.141L812.755 237.489C814.309 238.359 814.765 239.608 814.174 240.709C813.903 240.216 813.447 239.739 812.755 239.362Z" fill="#91AFFF"/>
<path d="M838.075 314.735L624.451 194.775C623.033 193.971 621.276 193.971 619.857 194.775L543.779 237.588C542.681 238.195 542.681 239.74 543.779 240.348L757.301 360.241C758.72 361.046 760.476 361.046 761.895 360.241L838.075 317.495C839.173 316.887 839.173 315.343 838.075 314.735Z" fill="#ADC8FF"/>
<path d="M838.075 317.495L837.314 317.922L624.451 198.389C623.032 197.584 621.276 197.584 619.857 198.389L544.556 240.758L543.796 240.331C542.698 239.723 542.698 238.179 543.796 237.571L619.874 194.759C621.293 193.954 623.049 193.954 624.468 194.759L838.091 314.718C839.189 315.326 839.189 316.87 838.091 317.478L838.075 317.495Z" fill="#91AFFF"/>
<path d="M563.694 234.663L749.784 339.164L742.42 343.304L556.312 238.803L563.694 234.663Z" fill="#242993"/>
<path d="M583.288 223.656L760.189 322.982L752.808 327.122L575.923 227.796L583.288 223.656Z" fill="#242993"/>
<path d="M773.381 330.391L789.918 339.673L782.536 343.813L766.017 334.531L773.381 330.391Z" fill="#242993"/>
<path d="M758.804 344.223L770.307 350.68L762.926 354.82L751.423 348.363L758.804 344.223Z" fill="#242993"/>
<path d="M595.584 216.756L802.198 332.773L794.833 336.913L588.203 220.896L595.584 216.756Z" fill="#242993"/>
<path d="M607.864 209.856L814.478 325.873L807.113 330.013L600.5 213.996L607.864 209.856Z" fill="#242993"/>
<path d="M620.161 202.957L826.774 318.973L819.393 323.113L612.78 207.096L620.161 202.957Z" fill="#242993"/>
</g>
</g>
<path d="M572.494 107.36L558.373 99.4255L558.913 96.2384L573.051 104.173L572.494 107.36Z" fill="#86DAA2"/>
<path d="M584.554 114.129L577.494 110.153L578.034 106.983L585.112 110.942L584.554 114.129Z" fill="#86DAA2"/>
<path d="M575.382 117.152L569.369 113.767L569.91 110.58L575.923 113.965L575.382 117.152Z" fill="#86DAA2"/>
<path d="M585.466 122.803L578.406 118.844L578.946 115.657L586.024 119.632L585.466 122.803Z" fill="#86DAA2"/>
<path d="M595.838 136.8L568.085 121.209L568.626 118.039L596.395 133.629L595.838 136.8Z" fill="#86DAA2"/>
<path d="M571.768 199.162L544.015 183.571L544.556 180.401L572.325 195.991L571.768 199.162Z" fill="#86DAA2"/>
<path d="M582.46 205.158L575.382 201.199L575.94 198.012L583 201.987L582.46 205.158Z" fill="#86DAA2"/>
<path d="M572.815 132.052L566.802 128.668L567.342 125.481L573.355 128.865L572.815 132.052Z" fill="#86DAA2"/>
<path d="M582.899 137.703L575.838 133.744L576.379 130.557L583.44 134.533L582.899 137.703Z" fill="#86DAA2"/>
<path d="M580.771 144.685L565.501 136.11L566.058 132.939L581.328 141.515L580.771 144.685Z" fill="#86DAA2"/>
<path d="M590.99 150.419L583.929 146.46L584.47 143.273L591.547 147.248L590.99 150.419Z" fill="#86DAA2"/>
<path d="M601.26 156.185L594.199 152.226L594.74 149.039L601.817 153.015L601.26 156.185Z" fill="#86DAA2"/>
<path d="M617.83 165.5L604.469 157.992L605.01 154.805L618.387 162.313L617.83 165.5Z" fill="#86DAA2"/>
<path d="M607.256 175.899L600.196 171.924L600.736 168.753L607.797 172.712L607.256 175.899Z" fill="#86DAA2"/>
<path d="M623.826 185.198L610.465 177.69L611.006 174.519L624.384 182.027L623.826 185.198Z" fill="#86DAA2"/>
<path d="M570.011 154.986L562.934 151.01L563.491 147.84L570.552 151.799L570.011 154.986Z" fill="#86DAA2"/>
<path d="M580.281 160.752L573.203 156.777L573.761 153.606L580.821 157.565L580.281 160.752Z" fill="#86DAA2"/>
<path d="M596.851 170.051L583.49 162.543L584.031 159.372L597.409 166.88L596.851 170.051Z" fill="#86DAA2"/>
<path d="M618.573 174.076L611.513 170.116L612.053 166.929L619.114 170.905L618.573 174.076Z" fill="#86DAA2"/>
<path d="M628.843 179.842L621.783 175.883L622.323 172.696L629.384 176.671L628.843 179.842Z" fill="#86DAA2"/>
<path d="M645.413 189.157L632.052 181.649L632.593 178.462L645.971 185.97L645.413 189.157Z" fill="#86DAA2"/>
<path d="M593.507 211.368L586.446 207.409L586.987 204.222L594.047 208.197L593.507 211.368Z" fill="#86DAA2"/>
<path d="M610.077 220.683L596.716 213.175L597.257 209.988L610.634 217.496L610.077 220.683Z" fill="#86DAA2"/>
<path d="M567.444 169.87L560.366 165.911L560.924 162.74L567.984 166.699L567.444 169.87Z" fill="#86DAA2"/>
<path d="M584.014 179.185L570.636 171.677L571.193 168.506L584.554 176.014L584.014 179.185Z" fill="#86DAA2"/>
<path d="M601.209 223.87L594.132 219.894L594.689 216.724L601.75 220.683L601.209 223.87Z" fill="#86DAA2"/>
<path d="M617.779 233.168L604.402 225.661L604.959 222.49L618.32 229.998L617.779 233.168Z" fill="#86DAA2"/>
<path d="M616.969 148.661L609.908 144.702L610.449 141.515L617.509 145.49L616.969 148.661Z" fill="#86DAA2"/>
<path d="M606.276 142.665L599.216 138.706L599.773 135.518L606.834 139.494L606.276 142.665Z" fill="#86DAA2"/>
<path d="M633.539 157.976L620.178 150.468L620.718 147.281L634.096 154.789L633.539 157.976Z" fill="#86DAA2"/>
<path d="M570.602 147.133L564.217 143.568L564.775 140.381L571.143 143.963L570.602 147.133Z" fill="#86DAA2"/>
<path d="M589.503 157.762L574.014 149.055L574.555 145.885L590.044 154.575L589.503 157.762Z" fill="#86DAA2"/>
<path d="M608.405 168.375L592.915 159.668L593.456 156.497L608.962 165.188L608.405 168.375Z" fill="#86DAA2"/>
<path d="M643.37 163.479L636.985 159.914L637.542 156.727L643.91 160.309L643.37 163.479Z" fill="#86DAA2"/>
<path d="M662.271 174.108L646.765 165.401L647.322 162.231L662.811 170.921L662.271 174.108Z" fill="#86DAA2"/>
<path d="M681.172 184.721L665.666 176.014L666.223 172.844L681.713 181.534L681.172 184.721Z" fill="#86DAA2"/>
<path d="M577.291 167.241L561.802 158.534L562.342 155.364L577.832 164.054L577.291 167.241Z" fill="#86DAA2"/>
<path d="M585.45 171.825L580.703 169.147L581.244 165.977L586.007 168.654L585.45 171.825Z" fill="#86DAA2"/>
<path d="M593.642 176.425L588.878 173.747L589.436 170.576L594.182 173.238L593.642 176.425Z" fill="#86DAA2"/>
<path d="M608.776 184.918L597.071 178.347L597.611 175.176L609.317 181.748L608.776 184.918Z" fill="#86DAA2"/>
<path d="M625.735 169.936L620.989 167.258L621.529 164.087L626.293 166.749L625.735 169.936Z" fill="#86DAA2"/>
<path d="M640.87 178.429L629.164 171.858L629.721 168.687L641.427 175.258L640.87 178.429Z" fill="#86DAA2"/>
<path d="M644.062 180.22L632.356 173.649L632.897 170.461L644.603 177.049L644.062 180.22Z" fill="#86DAA2"/>
<path d="M581.733 221.093L566.464 212.518L567.004 209.347L582.274 217.923L581.733 221.093Z" fill="#86DAA2"/>
<path d="M591.953 226.827L584.875 222.868L585.433 219.681L592.493 223.656L591.953 226.827Z" fill="#86DAA2"/>
<path d="M602.223 232.593L595.145 228.634L595.703 225.463L602.763 229.423L602.223 232.593Z" fill="#86DAA2"/>
<path d="M618.793 241.908L605.415 234.4L605.972 231.23L619.333 238.737L618.793 241.908Z" fill="#86DAA2"/>
<path d="M629.401 247.855L622.323 243.896L622.881 240.725L629.941 244.684L629.401 247.855Z" fill="#86DAA2"/>
<path d="M645.971 257.17L632.593 249.662L633.15 246.492L646.511 253.999L645.971 257.17Z" fill="#86DAA2"/>
<path d="M595.128 244.964L588.051 240.988L588.608 237.817L595.669 241.777L595.128 244.964Z" fill="#86DAA2"/>
<path d="M611.699 254.262L598.321 246.754L598.878 243.584L612.239 251.091L611.699 254.262Z" fill="#86DAA2"/>
<path d="M558.221 224.231L551.144 220.272L551.701 217.085L558.761 221.061L558.221 224.231Z" fill="#86DAA2"/>
<path d="M568.491 229.998L561.43 226.038L561.971 222.851L569.031 226.827L568.491 229.998Z" fill="#86DAA2"/>
<path d="M585.061 239.313L571.7 231.805L572.241 228.618L585.619 236.125L585.061 239.313Z" fill="#86DAA2"/>
<path d="M571.548 223.558L565.18 219.976L565.721 216.789L572.106 220.371L571.548 223.558Z" fill="#86DAA2"/>
<path d="M590.449 234.17L574.96 225.463L575.518 222.293L591.007 230.983L590.449 234.17Z" fill="#86DAA2"/>
<path d="M609.368 244.783L593.861 236.076L594.419 232.905L609.908 241.612L609.368 244.783Z" fill="#86DAA2"/>
<path d="M553.002 229.472L537.512 220.781L538.053 217.594L553.542 226.301L553.002 229.472Z" fill="#86DAA2"/>
<path d="M561.177 234.055L556.414 231.394L556.954 228.207L561.717 230.885L561.177 234.055Z" fill="#86DAA2"/>
<path d="M569.352 238.655L564.589 235.994L565.146 232.807L569.91 235.485L569.352 238.655Z" fill="#86DAA2"/>
<path d="M584.487 247.165L572.781 240.577L573.322 237.407L585.044 243.978L584.487 247.165Z" fill="#86DAA2"/>
<path d="M587.679 248.94L575.957 242.368L576.514 239.198L588.22 245.769L587.679 248.94Z" fill="#86DAA2"/>
<path d="M559.978 200.706L555.214 198.045L555.772 194.857L560.535 197.535L559.978 200.706Z" fill="#86DAA2"/>
<path d="M575.112 209.216L563.406 202.644L563.947 199.457L575.67 206.029L575.112 209.216Z" fill="#86DAA2"/>
<path d="M590.585 217.89L578.862 211.319L579.419 208.148L591.125 214.719L590.585 217.89Z" fill="#86DAA2"/>
<path d="M650.16 267.701L643.099 263.725L643.64 260.554L650.7 264.513L650.16 267.701Z" fill="#86DAA2"/>
<path d="M666.73 276.999L653.369 269.491L653.91 266.321L667.287 273.828L666.73 276.999Z" fill="#86DAA2"/>
<path d="M624.063 253.046L612.357 246.475L612.915 243.288L624.62 249.859L624.063 253.046Z" fill="#86DAA2"/>
<path d="M639.535 261.721L627.83 255.149L628.37 251.979L640.076 258.55L639.535 261.721Z" fill="#86DAA2"/>
<path d="M551.701 169.213L546.938 166.535L547.495 163.364L552.258 166.042L551.701 169.213Z" fill="#86DAA2"/>
<path d="M566.835 177.706L555.13 171.135L555.67 167.964L567.393 174.536L566.835 177.706Z" fill="#86DAA2"/>
<path d="M582.308 186.397L570.585 179.826L571.143 176.638L582.848 183.21L582.308 186.397Z" fill="#86DAA2"/>
</g>
<defs>
<radialGradient id="paint0_radial_81_708" cx="0" cy="0" r="1" gradientUnits="userSpaceOnUse" gradientTransform="translate(895.319 77.395) rotate(180) scale(641.68 624.095)">
<stop stop-color="#86DAA2"/>
<stop offset="0.18" stop-color="#6DB79E"/>
<stop offset="0.4" stop-color="#57979B"/>
<stop offset="0.6" stop-color="#468098"/>
<stop offset="0.8" stop-color="#3C7197"/>
<stop offset="0.96" stop-color="#396D97"/>
<stop offset="1" stop-color="#396D97"/>
</radialGradient>
<linearGradient id="paint1_linear_81_708" x1="807.147" y1="211.105" x2="507.125" y2="211.105" gradientUnits="userSpaceOnUse">
<stop stop-color="#C0D6FF"/>
<stop offset="0.3" stop-color="#C4DAFF"/>
<stop offset="0.65" stop-color="#D3E9FF"/>
<stop offset="1" stop-color="#E9FFFF"/>
</linearGradient>
<linearGradient id="paint2_linear_81_708" x1="807.13" y1="285.936" x2="755.629" y2="285.936" gradientUnits="userSpaceOnUse">
<stop stop-color="#5778FF"/>
<stop offset="0.18" stop-color="#5B7CFF"/>
<stop offset="0.39" stop-color="#6A89FF"/>
<stop offset="0.61" stop-color="#819FFF"/>
<stop offset="0.85" stop-color="#A2BDFF"/>
<stop offset="1" stop-color="#BCD5FF"/>
</linearGradient>
<linearGradient id="paint3_linear_81_708" x1="766.946" y1="370.065" x2="343.23" y2="370.065" gradientUnits="userSpaceOnUse">
<stop stop-color="#5778FF"/>
<stop offset="0.18" stop-color="#5B7CFF"/>
<stop offset="0.39" stop-color="#6A89FF"/>
<stop offset="0.61" stop-color="#819FFF"/>
<stop offset="0.85" stop-color="#A2BDFF"/>
<stop offset="1" stop-color="#BCD5FF"/>
</linearGradient>
<linearGradient id="paint4_linear_81_708" x1="624.57" y1="356.315" x2="200.634" y2="356.315" gradientUnits="userSpaceOnUse">
<stop stop-color="#C0D6FF"/>
<stop offset="0.3" stop-color="#C4DAFF"/>
<stop offset="0.65" stop-color="#D3E9FF"/>
<stop offset="1" stop-color="#E9FFFF"/>
</linearGradient>
<linearGradient id="paint5_linear_81_708" x1="552.782" y1="379.725" x2="444.256" y2="379.725" gradientUnits="userSpaceOnUse">
<stop stop-color="#C0D6FF"/>
<stop offset="0.3" stop-color="#C4DAFF"/>
<stop offset="0.65" stop-color="#D3E9FF"/>
<stop offset="1" stop-color="#E9FFFF"/>
</linearGradient>
<linearGradient id="paint6_linear_81_708" x1="786.54" y1="264.924" x2="362.604" y2="264.924" gradientUnits="userSpaceOnUse">
<stop stop-color="#C0D6FF"/>
<stop offset="0.3" stop-color="#C4DAFF"/>
<stop offset="0.65" stop-color="#D3E9FF"/>
<stop offset="1" stop-color="#E9FFFF"/>
</linearGradient>
<linearGradient id="paint7_linear_81_708" x1="814.444" y1="234.663" x2="705.935" y2="234.663" gradientUnits="userSpaceOnUse">
<stop stop-color="#C0D6FF"/>
<stop offset="0.3" stop-color="#C4DAFF"/>
<stop offset="0.65" stop-color="#D3E9FF"/>
<stop offset="1" stop-color="#E9FFFF"/>
</linearGradient>
<clipPath id="clip0_81_708">
<rect width="929" height="512.546" fill="white" transform="translate(0 0.116455)"/>
</clipPath>
</defs>
</svg>
