<svg width="876" height="522" viewBox="0 0 876 522" fill="none" xmlns="http://www.w3.org/2000/svg">
<path opacity="0.8" d="M852.044 1.35749C850.236 0.322732 847.297 0.322732 845.49 1.35749C844.122 2.1419 843.784 3.2768 844.476 4.2281L742.926 62.1578V135.275L718.181 149.395V228.937L633.438 277.27L620.229 269.743L685.581 232.459V188.865L685.327 188.715L611.04 146.34V131.553L653.048 107.587C654.856 108.338 657.406 108.255 659.028 107.32C660.835 106.285 660.835 104.616 659.028 103.581C657.22 102.547 654.281 102.547 652.474 103.581C650.835 104.516 650.7 105.968 652.001 107.003L609.993 130.969V146.941L610.246 147.091L684.533 189.466V231.875L635.16 260.047V241.888L657.795 228.971C659.602 229.722 662.153 229.638 663.774 228.704C665.582 227.669 665.582 226 663.774 224.965C661.967 223.93 659.028 223.93 657.22 224.965C655.582 225.9 655.447 227.352 656.747 228.387L634.113 241.304V260.648L619.181 269.159L601.53 259.079V227.452L634.84 208.459V186.596L634.586 186.445L564.471 146.44C565.788 145.406 565.636 143.954 563.998 143.019C562.19 141.984 559.251 141.984 557.444 143.019C555.637 144.054 555.637 145.723 557.444 146.758C559.082 147.692 561.616 147.776 563.423 147.025L633.792 187.163V207.842L601.53 226.25V204.454L601.277 204.303L558.373 179.836C559.69 178.802 559.538 177.35 557.9 176.415C556.093 175.38 553.154 175.38 551.346 176.415C549.539 177.45 549.539 179.119 551.346 180.153C552.985 181.088 555.518 181.172 557.326 180.421L600.483 205.038V258.478L588.085 251.402L567.646 263.051L549.133 252.486V226.834L548.88 226.684L499.946 198.779V174.596C500.96 174.529 501.939 174.295 502.699 173.845C504.507 172.81 504.507 171.141 502.699 170.106C500.892 169.072 497.953 169.072 496.146 170.106C494.338 171.141 494.338 172.81 496.146 173.845C496.923 174.279 497.902 174.529 498.899 174.596V199.38L499.152 199.53L548.086 227.435V251.902L468.444 206.473V158.323L511.635 133.69H551.279L551.397 133.623L619.401 94.8194C621.208 95.5704 623.759 95.487 625.38 94.5524C627.188 93.5176 627.188 91.8487 625.38 90.8139C623.573 89.7792 620.634 89.7792 618.827 90.8139C617.188 91.7485 617.053 93.2005 618.354 94.2353L550.975 132.671H513.409L467.38 157.739V207.074L467.633 207.224L566.565 263.652L546.65 275.017L377.755 178.668V121.172L377.502 121.022L320.072 88.2604C321.389 87.2256 321.237 85.7736 319.599 84.839C317.791 83.8043 314.852 83.8043 313.045 84.839C311.238 85.8738 311.238 87.5427 313.045 88.5775C314.683 89.5121 317.217 89.5956 319.024 88.8445L376.725 121.756V179.252L376.978 179.402L545.62 275.601L526.668 286.416L359.648 191.135H260.04L197.779 155.62V101.045C198.438 100.911 199.063 100.711 199.587 100.41C201.394 99.3757 201.394 97.7067 199.587 96.672C197.779 95.6372 194.84 95.6372 193.033 96.672C191.225 97.7067 191.225 99.3757 193.033 100.41C194.046 100.995 195.431 101.228 196.749 101.161V156.204L197.002 156.354L259.753 192.153H359.361L500.352 272.581H471.991L423.868 245.126H386.792L386.674 245.193L335.274 274.517C333.466 273.766 330.916 273.849 329.294 274.784C327.487 275.818 327.487 277.487 329.294 278.522C331.102 279.557 334.041 279.557 335.848 278.522C337.487 277.588 337.622 276.136 336.321 275.101L387.096 246.144H423.598L471.721 273.599H502.159L525.638 286.984L475.049 315.84L460.657 307.629V286.083L424.105 265.237C425.422 264.202 425.27 262.75 423.632 261.816C421.824 260.781 418.885 260.781 417.078 261.816C415.271 262.851 415.271 264.52 417.078 265.554C418.716 266.489 421.25 266.572 423.057 265.821L459.61 286.667V307.028L420.642 284.797H402.18L402.062 284.864L380.052 297.415C378.245 296.664 375.694 296.747 374.073 297.682C372.266 298.717 372.266 300.386 374.073 301.42C375.88 302.455 378.819 302.455 380.627 301.42C382.265 300.486 382.4 299.034 381.1 297.999L402.467 285.816H420.372L474.018 316.408L464.272 321.965L495.369 339.706L480.808 348.018H458.782L443.023 339.022C444.273 337.987 444.104 336.569 442.499 335.651C440.692 334.616 437.753 334.616 435.945 335.651C434.138 336.686 434.138 338.354 435.945 339.389C437.601 340.341 440.185 340.407 442.009 339.623L458.512 349.036H479.018L441.874 370.215L354.496 320.363H291.627L291.509 320.43L256.105 340.624C254.297 339.873 251.747 339.957 250.108 340.891C248.301 341.926 248.301 343.595 250.108 344.63C251.916 345.665 254.855 345.665 256.662 344.63C258.3 343.695 258.436 342.243 257.135 341.208L291.897 321.381H354.209L421.605 359.817H392.755L364.563 343.729C365.881 342.694 365.729 341.242 364.09 340.307C362.283 339.272 359.344 339.272 357.536 340.307C355.729 341.342 355.729 343.011 357.536 344.046C359.175 344.98 361.709 345.064 363.516 344.313L392.467 360.835H423.395L440.827 370.782L396.471 396.084H254.703L144.572 333.264C145.889 332.229 145.737 330.777 144.099 329.843C142.292 328.808 139.353 328.808 137.545 329.843C135.738 330.878 135.738 332.547 137.545 333.581C139.184 334.516 141.717 334.599 143.525 333.848L254.416 397.119H394.663L377.063 407.149H272.118L271.999 407.216L220.245 436.74C218.437 435.989 215.887 436.072 214.248 437.007C212.441 438.042 212.441 439.711 214.248 440.745C216.056 441.78 218.995 441.78 220.802 440.745C222.44 439.811 222.576 438.359 221.275 437.324L272.388 408.167H377.333L377.451 408.1L496.382 340.257L509.591 347.784L384.562 419.116H293.113L292.995 419.182L182.543 482.186H29.5765L0 465.313V466.497L29.3063 483.204H182.881L182.999 483.137L252.321 443.599V466.998L206.63 493.067C204.823 492.316 202.272 492.4 200.651 493.334C198.843 494.369 198.843 496.038 200.651 497.073C202.458 498.108 205.397 498.108 207.205 497.073C208.843 496.138 208.978 494.686 207.678 493.651L253.368 467.582V443.132H253.132L293.468 420.117H384.917L385.035 420.05L510.706 348.352L525.705 356.913L281.847 496.021V521.156H282.877V496.606L526.736 357.498L545.265 368.062L419.476 439.827V452.662L397.18 465.379V494.887L353.939 519.554C352.131 518.803 349.581 518.886 347.959 519.821C347.3 520.205 346.878 520.655 346.709 521.156H355.746C355.611 520.806 355.374 520.455 354.986 520.155L398.227 495.487V465.98L419.493 453.847V501.095L432.044 508.255L409.426 521.156H411.504L433.074 508.856L454.644 521.156H456.722L420.524 500.511V440.428L546.313 368.663L563.187 378.293L474.17 429.079C472.363 428.328 469.812 428.412 468.174 429.346C466.367 430.381 466.367 432.05 468.174 433.085C469.981 434.12 472.92 434.12 474.728 433.085C476.366 432.15 476.501 430.698 475.201 429.663L564.217 378.877L580.5 388.173L474.018 448.923H445.084C444.915 448.423 444.492 447.955 443.817 447.571C442.009 446.537 439.07 446.537 437.263 447.571C435.456 448.606 435.456 450.275 437.263 451.31C439.07 452.345 442.009 452.345 443.817 451.31C444.492 450.926 444.915 450.442 445.084 449.958H474.305L474.424 449.891L581.548 388.791L588.118 392.546L593.186 389.658L618.692 404.212V424.473L597.611 436.49V436.439H564.538L564.42 436.506L528.121 457.218C526.313 456.467 523.763 456.55 522.141 457.485C520.334 458.52 520.334 460.189 522.141 461.224C523.949 462.258 526.888 462.258 528.695 461.224C530.334 460.289 530.469 458.837 529.168 457.802L564.825 437.458H595.922L533.965 472.806C532.141 471.988 529.523 472.055 527.851 473.006C526.043 474.041 526.043 475.71 527.851 476.745C529.658 477.78 532.597 477.78 534.404 476.745C535.992 475.844 536.178 474.425 534.979 473.407L612.273 429.313V439.06L566.295 465.296V483.821L528.864 505.184C527.057 504.433 524.506 504.516 522.868 505.451C521.06 506.486 521.06 508.155 522.868 509.19C524.675 510.224 527.614 510.224 529.421 509.19C531.06 508.255 531.195 506.803 529.894 505.768L567.325 484.405V465.88L613.303 439.644V428.712L619.739 425.04V403.594L594.233 389.041L611.006 379.478L663.504 409.419V443.466L627.863 463.794C626.039 462.993 623.421 463.043 621.749 463.994C619.941 465.029 619.941 466.698 621.749 467.732C623.556 468.767 626.495 468.767 628.303 467.732C629.89 466.831 630.093 465.413 628.877 464.395L663.504 444.634V472.139L636.14 487.743V521.139H637.17V488.344L663.487 473.324V521.139H664.517V408.818L612.019 378.877L630.853 368.129L699.465 407.266V500.478L732.437 519.287V521.123H733.467V518.703L700.479 499.893V406.682L631.867 367.545L645.819 359.584L738.416 412.406V491.949L789.614 521.156H791.691L739.464 491.365V411.822L646.866 359L669.483 346.098L823.548 433.986V473.557L876.35 503.682V502.497L824.595 472.973V433.402L737.944 383.967H806.471L876.35 423.839V422.654L806.741 382.949H736.136L670.531 345.514L696.813 330.527L753.213 362.705H843.767L876.367 381.297V380.112L869.222 376.04H876.367V375.022H867.432L844.054 361.687H753.5L737.724 352.691H776.219L776.337 352.624L795.644 341.609H876.097L876.367 341.759V340.574H797.451L819.19 328.174C820.998 328.925 823.548 328.841 825.17 327.907C826.977 326.872 826.977 325.203 825.17 324.168C823.362 323.134 820.423 323.134 818.616 324.168C816.978 325.103 816.842 326.555 818.143 327.59L775.932 351.673H735.917L697.861 329.96L711.931 321.932L702.877 316.775H729.177L763.567 336.385C762.25 337.42 762.402 338.872 764.04 339.806C765.848 340.841 768.787 340.841 770.594 339.806C772.402 338.772 772.402 337.103 770.594 336.068C768.956 335.133 766.422 335.05 764.615 335.801L729.464 315.757H701.087L681.848 304.775L693.688 298.016H714.684L733.146 287.484H746.913L778.009 305.226C776.608 306.26 776.726 307.746 778.398 308.697C780.205 309.732 783.144 309.732 784.952 308.697C786.759 307.662 786.759 305.993 784.952 304.959C783.347 304.041 780.864 303.94 779.057 304.641L747.166 286.45H732.842L714.38 296.981H695.462L733.298 275.401H753.737L796.32 299.701H876.367V298.667H796.59L754.007 274.366H733.028L732.91 274.433L680.8 304.157L667.136 296.363L726.018 262.767H767.554L801.809 282.311H876.384V281.276H802.096L769.631 262.75H876.384V261.716H725.748L725.63 261.782L666.105 295.746L650.565 286.884L732.673 240.036H876.384V239.001H771.658L876.384 179.269V178.084L769.581 239.001H733.434L811.285 194.59V184.793L848.53 163.547C850.338 164.298 852.888 164.215 854.51 163.28C856.317 162.246 856.317 160.577 854.51 159.542C852.702 158.507 849.763 158.507 847.956 159.542C846.318 160.476 846.182 161.928 847.483 162.963L827.197 174.529V147.709L876.367 119.654V118.469L826.166 147.108V175.113L810.238 184.192V193.989L731.744 238.767L731.998 239.218L649.501 286.283L634.502 277.721L719.245 229.388V149.845L876.367 60.2218V59.0369L743.991 134.557V62.6251L845.27 4.96245C845.338 5.01252 845.405 5.06259 845.473 5.11266C847.28 6.14741 850.219 6.14741 852.027 5.11266C853.834 4.0779 853.834 2.40894 852.027 1.37418L852.044 1.35749Z" fill="url(#paint0_radial_81_709)"/>
<defs>
<radialGradient id="paint0_radial_81_709" cx="0" cy="0" r="1" gradientUnits="userSpaceOnUse" gradientTransform="translate(895.319 79.0978) rotate(180) scale(641.68 634.022)">
<stop stop-color="#86DAA2"/>
<stop offset="0.18" stop-color="#6DB79E"/>
<stop offset="0.4" stop-color="#57979B"/>
<stop offset="0.6" stop-color="#468098"/>
<stop offset="0.8" stop-color="#3C7197"/>
<stop offset="0.96" stop-color="#396D97"/>
<stop offset="1" stop-color="#396D97"/>
</radialGradient>
</defs>
</svg>
