<svg width="64" height="64" viewBox="0 0 64 64" fill="none" xmlns="http://www.w3.org/2000/svg">
<path d="M11.11 8.39998C10.7597 8.41136 10.4152 8.49291 10.097 8.6398C9.77876 8.78669 9.49324 8.99594 9.25733 9.25516C9.02142 9.51438 8.83992 9.8183 8.72358 10.1489C8.60723 10.4795 8.55841 10.8302 8.58 11.18C8.93 17.18 10.58 31.82 18.48 40.95C27.94 51.95 40.26 55.74 52.9 55.18C53.5775 55.1395 54.2145 54.8434 54.6822 54.3516C55.1499 53.8597 55.4136 53.2087 55.42 52.53V42.92C55.4121 42.0234 55.1032 41.1554 54.5428 40.4554C53.9825 39.7554 53.2032 39.2639 52.33 39.06L46 37.66C45.2171 37.4931 44.4021 37.5649 43.6605 37.8662C42.9189 38.1675 42.2847 38.6844 41.84 39.35L40.44 41.47C40.3115 41.664 40.1193 41.8071 39.8966 41.8746C39.6739 41.9421 39.4346 41.9299 39.22 41.84C36 40.45 23.17 34.45 21.76 24.33C21.7324 24.1345 21.7632 23.9353 21.8486 23.7573C21.9341 23.5794 22.0702 23.4307 22.24 23.33L24.78 21.78C25.4767 21.3482 26.0239 20.7129 26.3476 19.9599C26.6714 19.2069 26.756 18.3726 26.59 17.57L25.2 11.13C24.9968 10.2277 24.4872 9.42364 23.7579 8.85478C23.0286 8.28592 22.1246 7.98739 21.2 8.00998L11.11 8.39998Z" stroke="#86DAA2" stroke-width="3"/>
</svg>
