<svg width="53" height="42" viewBox="0 0 53 42" fill="none" xmlns="http://www.w3.org/2000/svg">
<path d="M38.5043 15C38.5014 15 38.4986 15 38.4952 15C37.2951 15 36.1649 14.5312 35.3154 13.68C34.4648 12.8277 33.9977 11.6958 34 10.4918C34.0011 9.29168 34.4705 8.16264 35.3217 7.31372C36.1717 6.46651 37.3002 6 38.5009 6C38.502 6 38.5037 6 38.5054 6C40.9857 6.00284 43.0023 8.02456 43 10.5071C42.9989 11.7089 42.5295 12.8385 41.6783 13.6874C40.8288 14.5341 39.7021 15 38.5043 15ZM38.5003 7.70465C37.7548 7.70465 37.053 7.99444 36.5252 8.52118C35.9967 9.04792 35.7052 9.7491 35.7047 10.4946C35.7035 11.2429 35.9939 11.9464 36.5223 12.476C37.0496 13.0044 37.7514 13.2953 38.4969 13.2953C38.4986 13.2953 38.5003 13.2953 38.5026 13.2953C39.2481 13.2953 39.9475 13.0061 40.4748 12.4805C41.0033 11.9538 41.2948 11.252 41.2953 10.506C41.2965 8.96382 40.0441 7.70693 38.5031 7.70522C38.5026 7.70465 38.5014 7.70465 38.5003 7.70465Z" fill="url(#paint0_linear_0_30)"/>
<path d="M52.144 42H0.855956C0.568289 42 0.300028 41.8589 0.141354 41.6241C-0.0167485 41.3899 -0.0441454 41.0932 0.0688667 40.8345L9.39807 19.508C9.53277 19.2002 9.8427 19 10.1852 19H32.1985C32.6717 19 33.0547 19.3742 33.0547 19.8365C33.0547 20.2988 32.6717 20.673 32.1985 20.673H10.7502L2.15274 40.3264H50.8467L42.5146 21.282C42.3285 20.857 42.5306 20.3657 42.9655 20.1839C43.3987 20.0027 43.9033 20.199 44.0894 20.6245L52.9311 40.8339C53.0441 41.0927 53.0167 41.3894 52.8586 41.6236C52.7 41.8589 52.4317 42 52.144 42Z" fill="url(#paint1_linear_0_30)"/>
<path d="M38.1497 41C37.7243 41 37.3571 40.6885 37.3079 40.2654C37.3028 40.2245 36.7608 36.1482 30.9146 35.1799C30.3709 35.0899 29.5036 35.0076 28.4988 34.9131C22.9661 34.3906 17.9194 33.7123 16.9463 31.1864C16.3183 29.557 17.236 28.3148 17.9726 27.3167C18.7794 26.2242 19.0453 25.7469 18.6334 25.0615C18.3726 24.6273 17.542 24.2738 16.7386 23.9319C15.1658 23.2625 13.0113 22.3456 13 19.8324C12.9977 19.3745 13.3762 19.0022 13.8447 19C13.8458 19 13.8475 19 13.8487 19C14.316 19 14.6951 19.3684 14.6973 19.8247C14.7036 21.1613 15.7293 21.6944 17.4176 22.413C18.4699 22.8609 19.5579 23.3238 20.0982 24.2235C21.1081 25.9049 20.092 27.2813 19.3502 28.2861C18.6543 29.2284 18.2425 29.8442 18.5355 30.6032C19.2173 32.3723 25.5969 32.9744 28.6629 33.2644C29.6999 33.3621 30.5955 33.4466 31.1987 33.5466C38.2889 34.7215 38.969 39.86 38.9944 40.0781C39.0476 40.5327 38.7133 40.9431 38.2476 40.995C38.2148 40.9983 38.182 41 38.1497 41Z" fill="url(#paint2_linear_0_30)"/>
<path d="M37.3064 30C37.3036 30 37.3002 30 37.2974 30C37.0039 29.9966 36.7334 29.8406 36.583 29.5877L28.5819 16.1019C28.5595 16.0642 28.5404 16.0253 28.5241 15.9848C27.5264 14.3408 27 12.4569 27 10.5257C27.0101 4.71849 31.7217 0 37.505 0C37.5095 0 37.5135 0 37.518 0C40.3255 0.0039424 42.9613 1.10444 44.9399 3.09817C46.9175 5.09021 48.0039 7.73837 48 10.5538C48 12.4563 47.4759 14.3301 46.4826 15.9842C46.4635 16.0383 46.4383 16.0901 46.4074 16.1402L38.0208 29.6035C37.8659 29.8496 37.596 30 37.3064 30ZM30.1061 15.3681L37.3238 27.5337L44.8861 15.394C44.9052 15.3421 44.9293 15.2915 44.959 15.2436C45.8468 13.8204 46.3159 12.1984 46.3159 10.5533V10.5521C46.3199 8.18668 45.4074 5.96317 43.7469 4.2899C42.0859 2.61663 39.8726 1.69298 37.5157 1.68904C37.5123 1.68904 37.5084 1.68904 37.5045 1.68904C32.6476 1.68904 28.6914 5.65115 28.6835 10.5268C28.6835 12.1905 29.1498 13.8136 30.0314 15.2194C30.0617 15.2661 30.0864 15.3162 30.1061 15.3681Z" fill="url(#paint3_linear_0_30)"/>
<defs>
<linearGradient id="paint0_linear_0_30" x1="38.5" y1="6" x2="38.5" y2="15" gradientUnits="userSpaceOnUse">
<stop stop-color="#86DAA2"/>
<stop offset="1" stop-color="#396D97"/>
</linearGradient>
<linearGradient id="paint1_linear_0_30" x1="26.5" y1="19" x2="26.5" y2="42" gradientUnits="userSpaceOnUse">
<stop stop-color="#86DAA2"/>
<stop offset="1" stop-color="#396D97"/>
</linearGradient>
<linearGradient id="paint2_linear_0_30" x1="26" y1="19" x2="26" y2="41" gradientUnits="userSpaceOnUse">
<stop stop-color="#86DAA2"/>
<stop offset="1" stop-color="#396D97"/>
</linearGradient>
<linearGradient id="paint3_linear_0_30" x1="37.5" y1="0" x2="37.5" y2="30" gradientUnits="userSpaceOnUse">
<stop stop-color="#86DAA2"/>
<stop offset="1" stop-color="#396D97"/>
</linearGradient>
</defs>
</svg>
