<svg width="48" height="42" viewBox="0 0 48 42" fill="none" xmlns="http://www.w3.org/2000/svg">
<path fill-rule="evenodd" clip-rule="evenodd" d="M43.5595 42H4.44023C3.26302 41.9986 2.13443 41.5294 1.30202 40.6952C0.469611 39.861 0.00136473 38.73 0 37.5503V9.34474V9.31975V9.29476V4.44965C0.00129044 3.26993 0.469513 2.13889 1.30194 1.3047C2.13436 0.47051 3.263 0.00129318 4.44023 0H43.5598C44.737 0.00129318 45.8656 0.47051 46.6981 1.3047C47.5305 2.13889 47.9987 3.26993 48 4.44965V37.5496C47.9986 38.7294 47.5303 39.8604 46.6978 40.6946C45.8654 41.5288 44.7368 41.9981 43.5595 41.9995V42ZM25.7282 37.0662H22.2715C22.0726 37.0662 21.8818 36.987 21.7412 36.8461C21.6005 36.7051 21.5215 36.5139 21.5215 36.3146V33.9855C20.857 33.796 20.2166 33.5299 19.6133 33.1925L17.9694 34.8401C17.8261 34.976 17.6363 35.0518 17.4389 35.0518C17.2416 35.0518 17.0518 34.976 16.9085 34.8401L14.4644 32.3903C14.3238 32.2494 14.2448 32.0582 14.2448 31.8589C14.2448 31.6597 14.3238 31.4685 14.4644 31.3276L16.1081 29.6802C15.7713 29.0755 15.5057 28.4336 15.3168 27.7674H12.9931C12.7942 27.7674 12.6034 27.6882 12.4627 27.5472C12.3221 27.4063 12.2431 27.2151 12.2431 27.0158V23.5523C12.2431 23.353 12.3221 23.1618 12.4627 23.0209C12.6034 22.8799 12.7942 22.8007 12.9931 22.8007H15.317C15.506 22.1348 15.7714 21.493 16.108 20.8884L14.4643 19.241C14.3946 19.1712 14.3394 19.0883 14.3017 18.9971C14.264 18.9059 14.2446 18.8082 14.2446 18.7095C14.2446 18.6107 14.264 18.513 14.3017 18.4218C14.3394 18.3306 14.3946 18.2477 14.4643 18.1779L16.9084 15.7285C17.0492 15.5877 17.24 15.5087 17.4389 15.5087C17.6378 15.5087 17.8285 15.5877 17.9693 15.7285L19.6132 17.3759C20.2165 17.0384 20.8568 16.7723 21.5214 16.5829V14.2542C21.5214 14.0549 21.6004 13.8637 21.7411 13.7227C21.8817 13.5818 22.0725 13.5026 22.2714 13.5026H25.7281C25.927 13.5026 26.1178 13.5818 26.2584 13.7227C26.3991 13.8637 26.4781 14.0549 26.4781 14.2542V16.5829C27.1428 16.7723 27.7833 17.0383 28.3868 17.3756L30.0307 15.7282C30.1713 15.5874 30.362 15.5083 30.5608 15.5083C30.6593 15.5082 30.7568 15.5276 30.8478 15.5654C30.9387 15.6033 31.0213 15.6588 31.0908 15.7287L33.5349 18.1781C33.6046 18.2478 33.6599 18.3306 33.6977 18.4218C33.7354 18.513 33.7549 18.6107 33.7549 18.7094C33.7549 18.8081 33.7354 18.9059 33.6977 18.997C33.6599 19.0882 33.6046 19.171 33.5349 19.2407L31.8912 20.8881C32.228 21.4928 32.4936 22.1347 32.6824 22.8009H35.006C35.2049 22.8009 35.3957 22.8801 35.5363 23.0211C35.677 23.162 35.756 23.3532 35.756 23.5525V27.0164C35.756 27.2158 35.677 27.407 35.5363 27.5479C35.3957 27.6889 35.2049 27.7681 35.006 27.7681H32.6825C32.4935 28.4342 32.228 29.0761 31.8912 29.6809L33.5348 31.328C33.6754 31.4689 33.7543 31.66 33.7543 31.8593C33.7543 32.0586 33.6754 32.2497 33.5348 32.3907L31.0906 34.8404C30.9473 34.9763 30.7576 35.052 30.5603 35.052C30.3631 35.052 30.1734 34.9763 30.0301 34.8404L28.3864 33.193C27.783 33.5306 27.1424 33.7967 26.4777 33.986V36.3146C26.4777 36.5139 26.3986 36.7051 26.258 36.8461C26.1173 36.987 25.9265 37.0662 25.7276 37.0662H25.7282ZM23.0215 35.5629H24.9781V33.3982C24.9781 33.226 25.0372 33.0591 25.1453 32.9252C25.2535 32.7914 25.4042 32.6989 25.5723 32.6631C26.4698 32.4723 27.3245 32.117 28.0933 31.6152C28.2374 31.5214 28.4093 31.4801 28.5801 31.4981C28.751 31.5161 28.9105 31.5923 29.032 31.714L30.5602 33.2455L31.9438 31.8589L30.4156 30.3275C30.294 30.2058 30.2179 30.0459 30.1999 29.8747C30.1819 29.7034 30.2232 29.5312 30.3168 29.3868C30.8176 28.6164 31.1722 27.7598 31.3626 26.8604C31.3982 26.6919 31.4905 26.5408 31.6241 26.4324C31.7576 26.324 31.9243 26.2649 32.0962 26.265H34.2558V24.304H32.0967C31.9248 24.304 31.7582 24.2448 31.6247 24.1365C31.4911 24.0281 31.3988 23.877 31.363 23.7086C31.1724 22.8088 30.8177 21.952 30.3168 21.1812C30.2232 21.0368 30.1819 20.8645 30.1999 20.6931C30.2179 20.5218 30.294 20.3619 30.4156 20.2401L31.9438 18.7087L30.5606 17.3221L29.0324 18.8535C28.9109 18.9752 28.7513 19.0514 28.5805 19.0694C28.4096 19.0874 28.2378 19.046 28.0937 18.9523C27.3249 18.4505 26.4702 18.0954 25.5726 17.9047C25.4045 17.8691 25.2536 17.7766 25.1455 17.6427C25.0373 17.5088 24.9783 17.3418 24.9785 17.1695V15.0048H23.0215V17.1695C23.0215 17.3417 22.9625 17.5087 22.8543 17.6425C22.7462 17.7763 22.5954 17.8689 22.4274 17.9047C21.5297 18.0955 20.6749 18.4507 19.9058 18.9523C19.7617 19.046 19.5897 19.0874 19.4188 19.0694C19.2479 19.0514 19.0883 18.9752 18.9667 18.8535L17.4385 17.3221L16.0548 18.7087L17.5831 20.2401C17.7046 20.3619 17.7807 20.5219 17.7986 20.6932C17.8165 20.8645 17.7752 21.0368 17.6815 21.1812C17.1808 21.9519 16.8264 22.8085 16.6361 23.7081C16.6005 23.8766 16.5082 24.0277 16.3746 24.1361C16.241 24.2445 16.0744 24.3036 15.9025 24.3035H13.7424V26.2642H15.9022C16.0741 26.2642 16.2407 26.3234 16.3742 26.4318C16.5078 26.5402 16.6001 26.6913 16.6358 26.8597C16.8263 27.7593 17.1808 28.6159 17.6815 29.3865C17.7751 29.5309 17.8163 29.7031 17.7984 29.8743C17.7805 30.0455 17.7045 30.2054 17.5831 30.3272L16.0548 31.8586L17.4386 33.2452L18.9668 31.7137C19.0884 31.592 19.2479 31.5158 19.4189 31.4978C19.5898 31.4797 19.7617 31.521 19.9059 31.6147C20.6749 32.1165 21.5298 32.4718 22.4275 32.6626C22.5955 32.6984 22.7463 32.7909 22.8544 32.9248C22.9626 33.0586 23.0216 33.2256 23.0216 33.3978V35.5629H23.0215ZM23.1106 28.6702C23.0288 28.6702 22.9476 28.6566 22.8703 28.6298C22.682 28.5658 22.5266 28.4296 22.4385 28.2509C22.3503 28.0723 22.3364 27.8659 22.4 27.677L24.178 22.4094C24.244 22.2234 24.3803 22.071 24.5575 21.9849C24.7347 21.8988 24.9386 21.886 25.1252 21.9492C25.3117 22.0125 25.4659 22.1467 25.5546 22.323C25.6432 22.4992 25.6591 22.7033 25.5988 22.8912L23.8206 28.1584C23.7705 28.3074 23.675 28.4368 23.5477 28.5286C23.4203 28.6203 23.2674 28.6697 23.1106 28.6698V28.6702ZM20.5172 28.2098C20.4186 28.2099 20.321 28.1905 20.23 28.1526C20.1389 28.1148 20.0562 28.0593 19.9866 27.9893L17.9192 25.917C17.8495 25.8473 17.7942 25.7645 17.7565 25.6733C17.7188 25.5822 17.6994 25.4845 17.6994 25.3858C17.6994 25.2872 17.7188 25.1895 17.7565 25.0983C17.7942 25.0072 17.8495 24.9244 17.9192 24.8546L19.9872 22.7823C20.1289 22.6464 20.318 22.5716 20.514 22.5737C20.7101 22.5759 20.8975 22.6549 21.0362 22.7938C21.1748 22.9328 21.2537 23.1206 21.2558 23.3171C21.258 23.5135 21.1832 23.7031 21.0477 23.845L19.5101 25.3859L21.0477 26.9267C21.1526 27.0317 21.2241 27.1656 21.2531 27.3114C21.2821 27.4572 21.2672 27.6084 21.2104 27.7457C21.1536 27.883 21.0574 28.0003 20.934 28.0828C20.8106 28.1653 20.6655 28.2093 20.5172 28.2091V28.2098ZM27.4821 28.2098C27.3338 28.2098 27.1888 28.1657 27.0655 28.083C26.9422 28.0004 26.8461 27.883 26.7894 27.7456C26.7326 27.6083 26.7178 27.4572 26.7468 27.3114C26.7758 27.1656 26.8472 27.0317 26.9522 26.9266L28.4897 25.3858L26.9522 23.8449C26.8114 23.704 26.7323 23.5128 26.7323 23.3135C26.7322 23.1141 26.8111 22.9229 26.9518 22.7818C27.0924 22.6408 27.2832 22.5615 27.4821 22.5615C27.6811 22.5614 27.8719 22.6405 28.0126 22.7815L30.0806 24.8533C30.1503 24.923 30.2056 25.0058 30.2433 25.097C30.2811 25.1881 30.3005 25.2858 30.3005 25.3845C30.3005 25.4832 30.2811 25.5809 30.2433 25.672C30.2056 25.7632 30.1503 25.846 30.0806 25.9157L28.0126 27.988C27.9432 28.0582 27.8605 28.1139 27.7695 28.1519C27.6784 28.1899 27.5807 28.2094 27.4821 28.2094L27.4821 28.2098ZM27.0122 5.78774H23.7445C23.5456 5.78774 23.3548 5.70855 23.2142 5.5676C23.0735 5.42664 22.9945 5.23546 22.9945 5.03611C22.9945 4.83677 23.0735 4.64559 23.2142 4.50463C23.3548 4.36367 23.5456 4.28448 23.7445 4.28448H27.0122C27.2111 4.28448 27.4019 4.36367 27.5425 4.50463C27.6832 4.64559 27.7622 4.83677 27.7622 5.03611C27.7622 5.23546 27.6832 5.42664 27.5425 5.5676C27.4019 5.70855 27.2111 5.78774 27.0122 5.78774ZM42.4778 5.78774H39.2103C39.0114 5.78774 38.8206 5.70855 38.6799 5.5676C38.5393 5.42664 38.4603 5.23546 38.4603 5.03611C38.4603 4.83677 38.5393 4.64559 38.6799 4.50463C38.8206 4.36367 39.0114 4.28448 39.2103 4.28448H42.4778C42.6767 4.28448 42.8674 4.36367 43.0081 4.50463C43.1488 4.64559 43.2278 4.83677 43.2278 5.03611C43.2278 5.23546 43.1488 5.42664 43.0081 5.5676C42.8674 5.70855 42.6767 5.78774 42.4778 5.78774ZM34.745 5.78774H31.4774C31.2785 5.78774 31.0877 5.70855 30.9471 5.5676C30.8064 5.42664 30.7274 5.23546 30.7274 5.03611C30.7274 4.83677 30.8064 4.64559 30.9471 4.50463C31.0877 4.36367 31.2785 4.28448 31.4774 4.28448H34.745C34.944 4.28448 35.1347 4.36367 35.2754 4.50463C35.4161 4.64559 35.4951 4.83677 35.4951 5.03611C35.4951 5.23546 35.4161 5.42664 35.2754 5.5676C35.1347 5.70855 34.944 5.78774 34.745 5.78774ZM46.5001 10.072H1.49998V37.5501C1.50095 38.3312 1.81104 39.0801 2.36223 39.6325C2.91342 40.1848 3.66072 40.4956 4.44023 40.4965H43.5598C44.3393 40.4956 45.0866 40.1848 45.6378 39.6325C46.189 39.0801 46.4991 38.3312 46.5 37.5501V10.0714L46.5001 10.072ZM1.49998 8.56878H46.5001V4.44975C46.4991 3.66859 46.1891 2.9197 45.6379 2.36734C45.0867 1.81497 44.3394 1.50423 43.5599 1.50326H4.44023C3.66072 1.50423 2.91342 1.81497 2.36223 2.36734C1.81104 2.9197 1.50095 3.66859 1.49998 4.44975V8.56821V8.56878Z" fill="url(#paint0_linear_0_37)"/>
<defs>
<linearGradient id="paint0_linear_0_37" x1="0" y1="21" x2="48" y2="21" gradientUnits="userSpaceOnUse">
<stop stop-color="#86DAA2"/>
<stop offset="1" stop-color="#396D97"/>
</linearGradient>
</defs>
</svg>
