<svg width="40" height="42" viewBox="0 0 40 42" fill="none" xmlns="http://www.w3.org/2000/svg">
<path fill-rule="evenodd" clip-rule="evenodd" d="M21.3615 31.0898H9.36799C9.04467 31.0898 8.78767 30.8355 8.78767 30.5156C8.78767 30.1957 9.04467 29.9414 9.36799 29.9414H21.7097L21.9112 29.277C21.9377 29.1884 21.9849 29.1104 22.0446 29.0473L28.933 18.996V6.39844C28.933 5.65195 28.361 5.08594 27.6066 5.08594H27.192V7.46484C27.192 8.68711 26.1889 9.67969 24.9537 9.67969C23.7184 9.67969 22.7153 8.68711 22.7153 7.46484V5.08594H20.5598V7.46484C20.5598 8.68711 19.5567 9.67969 18.3215 9.67969C17.0862 9.67969 16.0831 8.68711 16.0831 7.46484V5.08594H14.0105V7.46484C14.0105 8.68711 13.0074 9.67969 11.7722 9.67969C10.5369 9.67969 9.5338 8.68711 9.5338 7.46484V5.08594H7.37833V7.46484C7.37833 8.68711 6.37521 9.67969 5.13996 9.67969C3.90471 9.67969 2.90159 8.68711 2.90159 7.46484V5.08594H2.48708C1.73266 5.08594 1.16064 5.65195 1.16064 6.39844V39.5391C1.16064 40.2855 1.73266 40.8516 2.48708 40.8516H27.6066C28.361 40.8516 28.933 40.2855 28.933 39.5391V28.7249L26.5951 32.148C26.5429 32.2276 26.4716 32.29 26.3904 32.3326L20.8251 36.4629C20.7256 36.5449 20.6013 36.5859 20.4769 36.5859C20.3609 36.5859 20.2448 36.5531 20.1453 36.4793C20.089 36.4407 20.0409 36.3932 20.0019 36.3398H6.71511C6.39179 36.3398 6.13479 36.0855 6.13479 35.7656C6.13479 35.4457 6.39179 35.1914 6.71511 35.1914H20.118L21.3615 31.0898ZM24.1702 31.2416C24.0989 31.2268 24.0318 31.1973 23.9671 31.1555C23.9091 31.1153 23.8602 31.0677 23.8212 31.0136L22.7974 30.3458L21.5381 34.4941L25.1046 31.8511L24.1702 31.2416ZM24.1504 29.8618L35.0098 14.015L34.1467 13.4318L30.0555 19.4037C30.0232 19.4865 29.9726 19.5595 29.9079 19.6186L23.279 29.2934L24.1504 29.8618ZM36.1016 13.3662C36.114 13.3727 36.1256 13.3801 36.1372 13.3875C36.1513 13.3965 36.1646 13.4064 36.177 13.417L37.4114 14.2496L38.7321 12.3129C38.7404 12.2965 38.7487 12.2883 38.757 12.2719C38.815 12.198 38.8399 12.1242 38.8233 12.0504C38.8067 11.9602 38.7404 11.8699 38.6409 11.7961L38.6326 11.7879L36.7341 10.4754C36.6015 10.3934 36.4688 10.3934 36.3859 10.418C36.2533 10.4508 36.1372 10.5328 36.0543 10.6477L34.7959 12.4852L36.1016 13.3662ZM35.9673 14.6606L25.1187 30.4935L25.9568 31.0406L28.9678 26.6273C29.0002 26.5363 29.0557 26.4567 29.1262 26.3944L36.764 15.1979L35.9673 14.6606ZM38.2206 15.1266C38.2156 15.2283 38.1824 15.3308 38.1186 15.4219C38.0581 15.5039 37.9785 15.5671 37.8906 15.6097L30.0936 27.0252V39.5391C30.0936 40.9172 28.9993 42 27.6066 42H2.48708C1.09431 42 0 40.9172 0 39.5391V6.39844C0 5.02031 1.09431 3.9375 2.48708 3.9375H2.90159V2.21484C2.90159 0.992578 3.90471 0 5.13996 0C6.37521 0 7.37833 0.992578 7.37833 2.21484V3.9375H9.5338V2.21484C9.5338 0.992578 10.5369 0 11.7722 0C13.0074 0 14.0105 0.992578 14.0105 2.21484V3.9375H16.0831V2.21484C16.0831 0.992578 17.0862 0 18.3215 0C19.5567 0 20.5598 0.992578 20.5598 2.21484V3.9375H22.7153V2.21484C22.7153 0.992578 23.7184 0 24.9537 0C26.1889 0 27.192 0.992578 27.192 2.21484V3.9375H27.6066C28.9993 3.9375 30.0936 5.02031 30.0936 6.39844V17.302L35.0927 10.0078C35.6067 9.24492 36.6347 9.03164 37.3891 9.52383L37.3974 9.53203L39.2958 10.8445C39.6689 11.0988 39.9176 11.4598 39.9839 11.8699C40.0419 12.2555 39.9425 12.6492 39.6938 12.9691L38.2206 15.1266ZM20.7256 25.8398H6.71511C6.39179 25.8398 6.13479 25.5855 6.13479 25.2656C6.13479 24.9457 6.39179 24.6914 6.71511 24.6914H20.7256C21.049 24.6914 21.306 24.9457 21.306 25.2656C21.306 25.5855 21.049 25.8398 20.7256 25.8398ZM24.0417 20.5898H9.36799C9.04467 20.5898 8.78767 20.3355 8.78767 20.0156C8.78767 19.6957 9.04467 19.4414 9.36799 19.4414H24.0417C24.3651 19.4414 24.6221 19.6957 24.6221 20.0156C24.6221 20.3355 24.3651 20.5898 24.0417 20.5898ZM23.793 15.4219H6.3006C5.97728 15.4219 5.72028 15.1676 5.72028 14.8477C5.72028 14.5277 5.97728 14.2734 6.3006 14.2734H23.793C24.1164 14.2734 24.3734 14.5277 24.3734 14.8477C24.3734 15.1676 24.1164 15.4219 23.793 15.4219ZM24.9537 1.14844C24.3568 1.14844 23.8759 1.62422 23.8759 2.21484V4.50434V4.51172V4.5191V7.46484C23.8759 8.05547 24.3568 8.53125 24.9537 8.53125C25.5506 8.53125 26.0314 8.05547 26.0314 7.46484V4.515V4.51172V4.50844V2.21484C26.0314 1.62422 25.5506 1.14844 24.9537 1.14844ZM18.3215 1.14844C17.7246 1.14844 17.2437 1.62422 17.2437 2.21484V4.51172V7.46484C17.2437 8.05547 17.7246 8.53125 18.3215 8.53125C18.9184 8.53125 19.3992 8.05547 19.3992 7.46484V4.515V4.51172V4.50844V2.21484C19.3992 1.62422 18.9184 1.14844 18.3215 1.14844ZM11.7722 1.14844C11.1753 1.14844 10.6944 1.62422 10.6944 2.21484V4.50434V4.51172V4.5191V7.46484C10.6944 8.05547 11.1753 8.53125 11.7722 8.53125C12.3691 8.53125 12.8499 8.05547 12.8499 7.46484V4.51172V2.21484C12.8499 1.62422 12.3691 1.14844 11.7722 1.14844ZM5.13996 1.14844C4.54306 1.14844 4.06223 1.62422 4.06223 2.21484V4.50434V4.51172V4.5191V7.46484C4.06223 8.05547 4.54306 8.53125 5.13996 8.53125C5.73686 8.53125 6.21769 8.05547 6.21769 7.46484V4.5191V4.51172V4.50434V2.21484C6.21769 1.62422 5.73686 1.14844 5.13996 1.14844Z" fill="url(#paint0_linear_0_29)"/>
<defs>
<linearGradient id="paint0_linear_0_29" x1="20.0002" y1="0" x2="20.0002" y2="42" gradientUnits="userSpaceOnUse">
<stop stop-color="#86DAA2"/>
<stop offset="0.490196" stop-color="#396D97"/>
<stop offset="1" stop-color="#86DAA2"/>
</linearGradient>
</defs>
</svg>
