<svg width="53" height="42" viewBox="0 0 53 42" fill="none" xmlns="http://www.w3.org/2000/svg">
<path fill-rule="evenodd" clip-rule="evenodd" d="M50.2051 42H2.89844C1.3457 42 0 40.7586 0 39.2069V8.27586C0 8.27586 0 8.17241 0 8.06897C0 7.96552 0 7.86207 0 7.75862V2.7931C0 1.24138 1.24219 0 2.89844 0H50.2051C51.7578 0 53 1.24138 53 2.7931V8.06897V39.2069C53 40.7586 51.7578 42 50.2051 42ZM39.4395 5.17241H37.8867C37.4727 5.17241 37.1621 4.86207 37.1621 4.34483C37.1621 3.93103 37.4727 3.62069 37.8867 3.62069H39.4395C39.8535 3.62069 40.1641 3.93103 40.1641 4.34483C40.1641 4.86207 39.8535 5.17241 39.4395 5.17241ZM43.8906 5.17241H42.4414C42.0273 5.17241 41.7168 4.86207 41.7168 4.34483C41.7168 3.93103 42.0273 3.62069 42.4414 3.62069H43.8906C44.3047 3.62069 44.7188 3.93103 44.7188 4.34483C44.7188 4.86207 44.3047 5.17241 43.8906 5.17241ZM48.4453 5.17241H46.9961C46.582 5.17241 46.168 4.86207 46.168 4.34483C46.168 3.93103 46.582 3.62069 46.9961 3.62069H48.4453C48.8594 3.62069 49.1699 3.93103 49.1699 4.34483C49.1699 4.86207 48.8594 5.17241 48.4453 5.17241ZM15.5273 37.2414H6.00391C5.58984 37.2414 5.2793 36.8276 5.2793 36.4138V26.8966C5.2793 26.4828 5.58984 26.1724 6.00391 26.1724H15.5273C15.9414 26.1724 16.3555 26.4828 16.3555 26.8966V36.4138C16.3555 36.8276 15.9414 37.2414 15.5273 37.2414ZM6.83203 35.6897H13.7676L6.83203 28.7586V35.6897ZM14.8027 34.6552V27.7241H7.86719L14.8027 34.6552ZM46.9961 37.2414H37.4727C37.0586 37.2414 36.748 36.8276 36.748 36.4138V26.8966C36.748 26.4828 37.0586 26.1724 37.4727 26.1724H46.9961C47.4102 26.1724 47.8242 26.4828 47.8242 26.8966V36.3103C47.8242 36.6207 47.7207 36.8276 47.6172 37.0345C47.5137 37.0345 47.5137 37.0345 47.4102 37.1379C47.3066 37.1379 47.2031 37.2414 47.0996 37.2414H46.9961ZM38.3008 35.6897H45.2363L38.3008 28.7586V35.6897ZM46.2715 34.6552V27.7241H39.3359L46.2715 34.6552ZM31.2617 37.2414H21.7383C21.3242 37.2414 21.0137 36.8276 21.0137 36.4138V27.1034C21.0137 27 21.0137 26.7931 21.0137 26.6897C21.1172 26.3793 21.4277 26.1724 21.7383 26.1724H31.2617C31.7793 26.1724 32.0898 26.4828 32.0898 26.8966V36.4138C32.0898 36.5172 31.9863 36.7241 31.9863 36.8276C31.9863 36.8276 31.8828 36.931 31.7793 37.0345C31.7793 37.0345 31.6758 37.1379 31.5723 37.1379C31.4688 37.2414 31.4688 37.2414 31.3652 37.2414H31.2617ZM22.5664 35.6897H29.502L22.5664 28.7586V35.6897ZM30.5371 34.6552V27.7241H23.6016L30.5371 34.6552ZM46.9961 23.069H21.7383C21.3242 23.069 21.0137 22.7586 21.0137 22.3448C21.0137 21.931 21.3242 21.5172 21.7383 21.5172H47.0996C47.5137 21.5172 47.8242 21.931 47.8242 22.3448C47.8242 22.7586 47.4102 23.069 46.9961 23.069ZM46.9961 18.4138H21.7383C21.3242 18.4138 21.0137 18 21.0137 17.5862C21.0137 17.1724 21.3242 16.8621 21.7383 16.8621H47.0996C47.5137 16.8621 47.8242 17.1724 47.8242 17.5862C47.8242 18 47.4102 18.4138 46.9961 18.4138ZM46.9961 13.5517H21.7383C21.3242 13.5517 21.0137 13.2414 21.0137 12.8276C21.0137 12.4138 21.3242 12 21.7383 12H47.0996C47.5137 12 47.8242 12.4138 47.8242 12.8276C47.8242 13.2414 47.4102 13.5517 46.9961 13.5517ZM15.5273 23.069H6.00391C5.58984 23.069 5.2793 22.7586 5.2793 22.3448V12.8276C5.2793 12.5172 5.48633 12.2069 5.79688 12.1034C5.90039 12.1034 6.00391 12.1034 6.21094 12.1034H15.5273C15.9414 12.1034 16.3555 12.4138 16.3555 12.8276V22.3448C16.3555 22.6552 16.1484 22.8621 15.9414 22.9655C15.8379 23.069 15.7344 23.069 15.5273 23.069ZM6.83203 21.6207H13.7676L6.83203 14.6897V21.6207ZM14.8027 20.5862V13.5517H7.86719L14.8027 20.5862ZM51.4473 8.7931H1.55273V39.2069C1.55273 39.931 2.17383 40.5517 2.89844 40.5517H50.2051C50.9297 40.5517 51.4473 39.931 51.4473 39.2069V8.7931ZM1.55273 7.34483H51.4473V2.7931C51.4473 2.06897 50.9297 1.44828 50.2051 1.44828H2.89844V1.55172C2.17383 1.55172 1.55273 2.06897 1.55273 2.7931V7.34483Z" fill="url(#paint0_linear_0_35)"/>
<defs>
<linearGradient id="paint0_linear_0_35" x1="26.5001" y1="0.00315517" x2="26.5001" y2="41.9969" gradientUnits="userSpaceOnUse">
<stop stop-color="#86DAA2"/>
<stop offset="0.490196" stop-color="#396D97"/>
<stop offset="1" stop-color="#86DAA2"/>
</linearGradient>
</defs>
</svg>
