<svg width="145" height="184" viewBox="0 0 145 184" fill="none" xmlns="http://www.w3.org/2000/svg">
<path d="M35.494 11.5397L21.373 3.47864L21.9135 0.240845L36.0514 8.30194L35.494 11.5397Z" fill="#86DAA2"/>
<path d="M47.5544 18.4159L40.4938 14.377L41.0343 11.1559L48.1117 15.1781L47.5544 18.4159Z" fill="#86DAA2"/>
<path d="M38.3824 21.4868L32.3691 18.0487L32.9096 14.8109L38.9229 18.249L38.3824 21.4868Z" fill="#86DAA2"/>
<path d="M48.4664 27.228L41.4059 23.2058L41.9464 19.968L49.0239 24.0069L48.4664 27.228Z" fill="#86DAA2"/>
<path d="M58.8377 41.4475L31.0854 25.609L31.6259 22.3879L59.3951 38.2264L58.8377 41.4475Z" fill="#86DAA2"/>
<path d="M34.7677 104.801L7.01541 88.9629L7.55594 85.7418L35.3251 101.58L34.7677 104.801Z" fill="#86DAA2"/>
<path d="M45.4598 110.893L38.3824 106.871L38.9398 103.633L46.0003 107.672L45.4598 110.893Z" fill="#86DAA2"/>
<path d="M35.8149 36.6242L29.8017 33.1862L30.3422 29.9484L36.3555 33.3864L35.8149 36.6242Z" fill="#86DAA2"/>
<path d="M45.899 42.3655L38.8385 38.3432L39.379 35.1055L46.4395 39.1444L45.899 42.3655Z" fill="#86DAA2"/>
<path d="M43.7707 49.4586L28.501 40.7466L29.0584 37.5255L44.3281 46.2375L43.7707 49.4586Z" fill="#86DAA2"/>
<path d="M53.9899 55.2832L46.9294 51.261L47.4699 48.0232L54.5473 52.0621L53.9899 55.2832Z" fill="#86DAA2"/>
<path d="M64.2597 61.1413L57.1992 57.1191L57.7398 53.8813L64.8172 57.9202L64.2597 61.1413Z" fill="#86DAA2"/>
<path d="M80.83 70.6043L67.4691 62.9772L68.0096 59.7394L81.3875 67.3665L80.83 70.6043Z" fill="#86DAA2"/>
<path d="M70.2561 81.1688L63.1956 77.1299L63.7361 73.9088L70.7966 77.931L70.2561 81.1688Z" fill="#86DAA2"/>
<path d="M86.8264 90.6152L73.4655 82.9881L74.006 79.767L87.3838 87.3941L86.8264 90.6152Z" fill="#86DAA2"/>
<path d="M33.011 59.9229L25.9336 55.8841L26.491 52.663L33.5515 56.6852L33.011 59.9229Z" fill="#86DAA2"/>
<path d="M43.2809 65.781L36.2034 61.7421L36.7608 58.521L43.8213 62.5432L43.2809 65.781Z" fill="#86DAA2"/>
<path d="M59.8511 75.2274L46.4902 67.6002L47.0307 64.3792L60.4085 72.0063L59.8511 75.2274Z" fill="#86DAA2"/>
<path d="M81.5732 79.3163L74.5127 75.2941L75.0532 72.0563L82.1137 76.0952L81.5732 79.3163Z" fill="#86DAA2"/>
<path d="M91.8431 85.1744L84.7825 81.1522L85.3231 77.9144L92.3836 81.9533L91.8431 85.1744Z" fill="#86DAA2"/>
<path d="M108.413 94.6374L95.0524 87.0103L95.593 83.7725L108.971 91.3996L108.413 94.6374Z" fill="#86DAA2"/>
<path d="M56.5067 117.202L49.4462 113.18L49.9867 109.942L57.0472 113.981L56.5067 117.202Z" fill="#86DAA2"/>
<path d="M73.077 126.665L59.716 119.038L60.2565 115.8L73.6344 123.427L73.077 126.665Z" fill="#86DAA2"/>
<path d="M30.4435 75.0437L23.3661 71.0215L23.9235 67.8004L30.9841 71.8226L30.4435 75.0437Z" fill="#86DAA2"/>
<path d="M47.0138 84.5068L33.636 76.8797L34.1934 73.6586L47.5544 81.2857L47.0138 84.5068Z" fill="#86DAA2"/>
<path d="M64.209 129.903L57.1316 125.864L57.6891 122.643L64.7496 126.665L64.209 129.903Z" fill="#86DAA2"/>
<path d="M80.7793 139.349L67.4015 131.722L67.9589 128.501L81.3199 136.128L80.7793 139.349Z" fill="#86DAA2"/>
<path d="M79.9686 53.4974L72.908 49.4752L73.4486 46.2374L80.5091 50.2763L79.9686 53.4974Z" fill="#86DAA2"/>
<path d="M69.2764 47.4057L62.2159 43.3835L62.7733 40.1458L69.8339 44.1846L69.2764 47.4057Z" fill="#86DAA2"/>
<path d="M96.5389 62.9604L83.1779 55.3332L83.7184 52.0955L97.0963 59.7226L96.5389 62.9604Z" fill="#86DAA2"/>
<path d="M33.6022 51.9453L27.2173 48.3236L27.7747 45.0858L34.1427 48.7242L33.6022 51.9453Z" fill="#86DAA2"/>
<path d="M52.5035 62.7435L37.0142 53.898L37.5547 50.6769L53.044 59.5057L52.5035 62.7435Z" fill="#86DAA2"/>
<path d="M71.4047 73.525L55.9155 64.6795L56.456 61.4584L71.9621 70.2872L71.4047 73.525Z" fill="#86DAA2"/>
<path d="M106.37 68.5515L99.9846 64.9298L100.542 61.692L106.91 65.3304L106.37 68.5515Z" fill="#86DAA2"/>
<path d="M125.271 79.3497L109.765 70.5042L110.322 67.2831L125.811 76.1119L125.271 79.3497Z" fill="#86DAA2"/>
<path d="M144.172 90.1312L128.666 81.2857L129.223 78.0646L144.713 86.8934L144.172 90.1312Z" fill="#86DAA2"/>
<path d="M40.2911 72.3734L24.8019 63.5279L25.3424 60.3068L40.8316 69.1356L40.2911 72.3734Z" fill="#86DAA2"/>
<path d="M48.4496 77.0299L43.7032 74.3095L44.2436 71.0884L49.007 73.8088L48.4496 77.0299Z" fill="#86DAA2"/>
<path d="M56.6418 81.703L51.8785 78.9826L52.4359 75.7615L57.1823 78.4652L56.6418 81.703Z" fill="#86DAA2"/>
<path d="M71.7763 90.3314L60.0707 83.6555L60.6112 80.4344L72.3169 87.1103L71.7763 90.3314Z" fill="#86DAA2"/>
<path d="M88.7351 75.1105L83.9887 72.39L84.5292 69.1689L89.2925 71.8727L88.7351 75.1105Z" fill="#86DAA2"/>
<path d="M103.87 83.7391L92.1641 77.0633L92.7214 73.8422L104.427 80.518L103.87 83.7391Z" fill="#86DAA2"/>
<path d="M107.062 85.5582L95.3564 78.8823L95.897 75.6445L107.603 82.3371L107.062 85.5582Z" fill="#86DAA2"/>
<path d="M44.7335 127.082L29.4638 118.37L30.0043 115.149L45.274 123.861L44.7335 127.082Z" fill="#86DAA2"/>
<path d="M54.9527 132.907L47.8753 128.885L48.4327 125.647L55.4932 129.686L54.9527 132.907Z" fill="#86DAA2"/>
<path d="M65.2225 138.765L58.1451 134.743L58.7026 131.521L65.7631 135.544L65.2225 138.765Z" fill="#86DAA2"/>
<path d="M81.7928 148.228L68.415 140.601L68.9724 137.38L82.3334 145.007L81.7928 148.228Z" fill="#86DAA2"/>
<path d="M92.4005 154.269L85.3231 150.247L85.8805 147.026L92.941 151.048L92.4005 154.269Z" fill="#86DAA2"/>
<path d="M108.971 163.732L95.593 156.105L96.1503 152.884L109.511 160.511L108.971 163.732Z" fill="#86DAA2"/>
<path d="M58.1282 151.332L51.0508 147.293L51.6082 144.072L58.6687 148.094L58.1282 151.332Z" fill="#86DAA2"/>
<path d="M74.6985 160.778L61.3207 153.151L61.8781 149.93L75.239 157.557L74.6985 160.778Z" fill="#86DAA2"/>
<path d="M21.2209 130.27L14.1435 126.248L14.7009 123.01L21.7614 127.049L21.2209 130.27Z" fill="#86DAA2"/>
<path d="M31.4908 136.128L24.4303 132.106L24.9708 128.868L32.0313 132.907L31.4908 136.128Z" fill="#86DAA2"/>
<path d="M48.0611 145.591L34.7001 137.964L35.2406 134.726L48.6185 142.353L48.0611 145.591Z" fill="#86DAA2"/>
<path d="M34.5481 129.585L28.1801 125.947L28.7206 122.709L35.1055 126.348L34.5481 129.585Z" fill="#86DAA2"/>
<path d="M53.4494 140.367L37.9601 131.522L38.5175 128.3L54.0068 137.129L53.4494 140.367Z" fill="#86DAA2"/>
<path d="M72.3675 151.148L56.8614 142.303L57.4188 139.082L72.908 147.927L72.3675 151.148Z" fill="#86DAA2"/>
<path d="M16.0016 135.594L0.512299 126.765L1.05283 123.527L16.542 132.373L16.0016 135.594Z" fill="#86DAA2"/>
<path d="M24.1769 140.25L19.4136 137.546L19.9541 134.309L24.7174 137.029L24.1769 140.25Z" fill="#86DAA2"/>
<path d="M32.3522 144.923L27.5889 142.219L28.1463 138.982L32.9096 141.702L32.3522 144.923Z" fill="#86DAA2"/>
<path d="M47.4868 153.568L35.7812 146.876L36.3217 143.655L48.0441 150.331L47.4868 153.568Z" fill="#86DAA2"/>
<path d="M50.6792 155.371L38.9567 148.695L39.5141 145.474L51.2197 152.15L50.6792 155.371Z" fill="#86DAA2"/>
<path d="M22.9776 106.37L18.2143 103.667L18.7717 100.429L23.535 103.149L22.9776 106.37Z" fill="#86DAA2"/>
<path d="M38.1121 115.015L26.4065 108.34L26.947 105.102L38.6695 111.778L38.1121 115.015Z" fill="#86DAA2"/>
<path d="M53.5845 123.827L41.862 117.152L42.4194 113.931L54.125 120.606L53.5845 123.827Z" fill="#86DAA2"/>
<path d="M113.16 174.431L106.099 170.392L106.64 167.171L113.7 171.193L113.16 174.431Z" fill="#86DAA2"/>
<path d="M129.73 183.877L116.369 176.25L116.91 173.029L130.287 180.656L129.73 183.877Z" fill="#86DAA2"/>
<path d="M87.0629 159.543L75.3573 152.868L75.9147 149.63L87.6203 156.306L87.0629 159.543Z" fill="#86DAA2"/>
<path d="M102.535 168.355L90.8296 161.68L91.3702 158.458L103.076 165.134L102.535 168.355Z" fill="#86DAA2"/>
<path d="M14.7009 74.3762L9.93756 71.6558L10.495 68.4347L15.2583 71.1551L14.7009 74.3762Z" fill="#86DAA2"/>
<path d="M29.8354 83.0047L18.1298 76.3289L18.6704 73.1078L30.3929 79.7836L29.8354 83.0047Z" fill="#86DAA2"/>
<path d="M45.3078 91.8336L33.5853 85.1577L34.1427 81.9199L45.8483 88.5958L45.3078 91.8336Z" fill="#86DAA2"/>
</svg>
