<svg width="38" height="40" viewBox="0 0 38 40" fill="none" xmlns="http://www.w3.org/2000/svg">
<path d="M34.75 14.0412C34.6522 13.8954 34.5101 13.7848 34.3447 13.7258C34.1793 13.6667 33.9993 13.6623 33.8312 13.7131C33.5753 13.7919 27.4853 15.6819 25.825 20.2756C24.46 24.1541 26.6847 28.5312 27.5312 29.9553C25.4781 31.9772 22.715 33.115 19.8334 33.125C18.956 32.4561 18.1291 31.7235 17.3594 30.9331C18.5866 28.9644 23.4494 20.3544 20.7588 12.8666C17.7531 4.50593 6.63625 1.08031 6.16375 0.968743C5.99566 0.917886 5.81568 0.922317 5.6503 0.981384C5.48491 1.04045 5.34285 1.15103 5.245 1.29687C4.96938 1.67749 -1.41594 11.4031 1.58313 19.7506C4.2475 27.1597 13.3103 30.6903 15.64 31.4909C17.8074 33.8857 20.4525 35.7999 23.4048 37.1099C26.3572 38.4199 29.5513 39.0968 32.7812 39.0969C32.9988 39.0969 33.2075 39.0104 33.3613 38.8566C33.5151 38.7028 33.6016 38.4941 33.6016 38.2766C33.6016 38.059 33.5151 37.8503 33.3613 37.6965C33.2075 37.5427 32.9988 37.4562 32.7812 37.4562C28.9931 37.4598 25.272 36.4565 21.9991 34.5491C24.7322 34.0692 27.2317 32.7041 29.1128 30.6641C30.4975 30.1784 35.3144 28.2359 36.7581 24.2131C38.425 19.5931 34.9272 14.2709 34.75 14.0412ZM3.12531 19.1928C0.7825 12.6631 5.035 4.79468 6.28188 2.70781C8.57219 3.52156 16.8672 6.87499 19.21 13.4375C21.4741 19.7309 17.6087 27.2647 16.2109 29.6731C13.0126 25.8237 11.2642 20.9753 11.2694 15.9706C11.2694 15.7531 11.183 15.5444 11.0291 15.3906C10.8753 15.2367 10.6666 15.1503 10.4491 15.1503C10.2315 15.1503 10.0229 15.2367 9.86901 15.3906C9.71518 15.5444 9.62875 15.7531 9.62875 15.9706C9.61569 20.5813 10.9874 25.0898 13.5662 28.9119C10.1866 27.3172 4.92344 24.1803 3.12531 19.1928ZM35.2225 23.6553C34.5006 25.6634 32.6434 27.0875 31.0291 27.9931C31.9994 26.1754 32.5087 24.1473 32.5122 22.0869C32.5122 21.8693 32.4258 21.6607 32.2719 21.5068C32.1181 21.353 31.9094 21.2666 31.6919 21.2666C31.4743 21.2666 31.2657 21.353 31.1118 21.5068C30.958 21.6607 30.8716 21.8693 30.8716 22.0869C30.8668 24.4534 30.0981 26.7551 28.6797 28.6494C27.8331 27.0678 26.3762 23.6881 27.3672 20.8531C28.4762 17.7753 32.2431 16.0691 33.7131 15.5047C34.5137 16.8631 36.3316 20.5775 35.2225 23.6553Z" fill="url(#paint0_linear_0_86)"/>
<defs>
<linearGradient id="paint0_linear_0_86" x1="0.7825" y1="20" x2="37.2109" y2="20" gradientUnits="userSpaceOnUse">
<stop stop-color="#86DAA2"/>
<stop offset="1" stop-color="#396D97"/>
</linearGradient>
</defs>
</svg>
