<svg width="36" height="42" viewBox="0 0 36 42" fill="none" xmlns="http://www.w3.org/2000/svg">
<path fill-rule="evenodd" clip-rule="evenodd" d="M18.0148 37.8715C17.9498 37.8715 17.9144 37.8715 17.8494 37.836C9.45057 35.4794 4.05217 29.9806 4.05217 23.838V10.4542C4.05217 10.1471 4.25889 9.91084 4.56602 9.8754C6.20208 9.66868 8.55871 8.95401 11.0512 7.92631C13.9571 6.76867 16.5146 5.33343 17.6072 4.31163C17.8494 4.06947 18.2215 4.10491 18.4282 4.31163C19.4854 5.33343 22.0488 6.73323 24.9488 7.92631C27.4413 8.95401 29.7979 9.66868 31.434 9.8754C31.7411 9.91084 31.9478 10.1825 31.9478 10.4542V23.838C31.9478 29.9806 26.5553 35.444 18.1565 37.836C18.1211 37.8715 18.0856 37.8715 18.0148 37.8715ZM13.6795 28.2737C13.5437 28.2737 13.4433 28.2441 13.3428 28.1733C13.1716 28.0374 13.0652 27.8307 13.1007 27.6299L13.6795 23.1529L10.5432 19.8453C10.4015 19.674 10.3365 19.4673 10.4015 19.2606C10.4724 19.0598 10.6436 18.8885 10.8504 18.853L15.286 18.0321L17.4714 14.0748C17.5718 13.8681 17.7785 13.7677 17.9852 13.7677C18.186 13.7677 18.3928 13.9035 18.4932 14.0748L20.649 18.0321L25.0847 18.853C25.2914 18.8885 25.4627 19.0598 25.5276 19.2606C25.5985 19.4673 25.5276 19.7095 25.3918 19.8453L22.285 23.1233L22.8639 27.5944C22.8993 27.8012 22.7989 28.0374 22.6276 28.1378C22.4563 28.2737 22.2142 28.2737 22.0134 28.2087L17.9498 26.2596L13.8508 28.2087C13.8508 28.2737 13.7504 28.2737 13.6795 28.2737ZM12.1793 19.8099L14.7072 22.5091C14.8431 22.6449 14.8785 22.8162 14.8785 22.9875L14.4001 26.673L17.7431 25.0665C17.9144 25.0015 18.0856 25.0015 18.2569 25.0665L21.5999 26.673L21.1215 22.9875C21.092 22.8162 21.1569 22.6449 21.2928 22.5091L23.8207 19.8099L20.1706 19.1247C19.9993 19.0952 19.828 18.9889 19.7571 18.8176L17.9852 15.575L16.2429 18.8176C16.1425 18.9889 16.0007 19.0952 15.8353 19.1247L12.1793 19.8099ZM18.0148 42C17.9498 42 17.9144 42 17.8494 41.9646C7.40107 39.0291 0.638306 32.1659 0.638306 24.5527V7.79047C0.638306 7.48334 0.845028 7.24708 1.15216 7.21164C3.26663 6.90451 6.23752 6.01856 9.34425 4.75461C13.0003 3.28393 16.2429 1.47659 17.6072 0.17719C17.8494 -0.0590634 18.2215 -0.0590634 18.4282 0.17719C19.7926 1.51202 23.0352 3.28393 26.6557 4.75461C29.7625 6.01856 32.7334 6.93995 34.8478 7.21164C35.155 7.24708 35.3617 7.51877 35.3617 7.79047V24.5527C35.3617 32.1659 28.6344 38.9937 18.186 41.9646C18.1211 42 18.0856 42 18.0148 42ZM1.86682 8.30432V24.5527C1.86682 31.5871 8.22205 37.9364 18.0148 40.7715C27.8134 37.9364 34.1627 31.5871 34.1627 24.5527V8.30432C32.0128 7.92631 29.1482 7.04036 26.2128 5.84728C22.728 4.44748 19.6567 2.77598 18.0148 1.40571C16.3787 2.77598 13.3074 4.44748 9.82267 5.84728C6.85178 7.0758 4.02264 7.92631 1.86682 8.30432ZM5.25116 10.9681V23.838C5.25116 29.3663 10.2656 34.3867 18.0148 36.6429C25.7698 34.3867 30.7488 29.4018 30.7488 23.838V10.9681C29.0773 10.6609 26.827 9.97581 24.5058 9.01898C21.7358 7.89678 19.3142 6.59738 18.0148 5.54015C16.6858 6.63282 14.2642 7.92631 11.4942 9.01898C9.17297 9.97581 6.92265 10.6964 5.25116 10.9681Z" fill="url(#paint0_linear_0_83)"/>
<defs>
<linearGradient id="paint0_linear_0_83" x1="18.0004" y1="-2.32533e-05" x2="18.0004" y2="42.0007" gradientUnits="userSpaceOnUse">
<stop stop-color="#86DAA2"/>
<stop offset="0.490196" stop-color="#396D97"/>
<stop offset="1" stop-color="#86DAA2"/>
</linearGradient>
</defs>
</svg>
